<svg xmlns="http://www.w3.org/2000/svg" xmlns:xlink="http://www.w3.org/1999/xlink" contentStyleType="text/css" data-diagram-type="DESCRIPTION" height="437px" preserveAspectRatio="none" style="width:358px;height:437px;background:#FFFFFF;" version="1.1" viewBox="0 0 358 437" width="358px" zoomAndPan="magnify"><defs/><g><g class="cluster" data-entity="..3" data-source-line="5" data-uid="ent0004" id="cluster_..3"><rect fill="none" height="424" rx="2.5" ry="2.5" style="stroke:#181818;stroke-width:1;" width="227.45" x="124.91" y="7"/></g><!--entity AgendarCita--><g class="entity" data-entity="AgendarCita" data-source-line="6" data-uid="ent0005" id="entity_AgendarCita"><ellipse cx="238.6262" cy="399.9972" fill="#F1F1F1" rx="63.4362" ry="15.0872" style="stroke:#181818;stroke-width:0.5;"/><text fill="#000000" font-family="sans-serif" font-size="14" lengthAdjust="spacing" textLength="89.2773" x="193.9875" y="404.6457">Agendar cita</text></g><!--entity ModificarCita--><g class="entity" data-entity="ModificarCita" data-source-line="7" data-uid="ent0006" id="entity_ModificarCita"><ellipse cx="238.6332" cy="333.9986" fill="#F1F1F1" rx="65.3432" ry="15.4686" style="stroke:#181818;stroke-width:0.5;"/><text fill="#000000" font-family="sans-serif" font-size="14" lengthAdjust="spacing" textLength="94.377" x="191.4448" y="338.6471">Modificar cita</text></g><!--entity CancelarCita--><g class="entity" data-entity="CancelarCita" data-source-line="8" data-uid="ent0007" id="entity_CancelarCita"><ellipse cx="238.6292" cy="267.9998" fill="#F1F1F1" rx="64.3992" ry="15.2798" style="stroke:#181818;stroke-width:0.5;"/><text fill="#000000" font-family="sans-serif" font-size="14" lengthAdjust="spacing" textLength="91.8682" x="192.6952" y="272.6483">Cancelar cita</text></g><!--entity ConsultarEstado--><g class="entity" data-entity="ConsultarEstado" data-source-line="9" data-uid="ent0008" id="entity_ConsultarEstado"><ellipse cx="238.6338" cy="196.0048" fill="#F1F1F1" rx="97.7238" ry="21.9448" style="stroke:#181818;stroke-width:0.5;"/><text fill="#000000" font-family="sans-serif" font-size="14" lengthAdjust="spacing" textLength="171.0283" x="153.1196" y="200.6532">Consultar estado de cita</text></g><!--entity RecibirNotificaciones--><g class="entity" data-entity="RecibirNotificaciones" data-source-line="10" data-uid="ent0009" id="entity_RecibirNotificaciones"><ellipse cx="238.6341" cy="118.9988" fill="#F1F1F1" rx="88.2441" ry="20.0488" style="stroke:#181818;stroke-width:0.5;"/><text fill="#000000" font-family="sans-serif" font-size="14" lengthAdjust="spacing" textLength="149.7549" x="163.7567" y="123.6473">Recibir notificaciones</text></g><!--entity Retroalimentacion--><g class="entity" data-entity="Retroalimentacion" data-source-line="11" data-uid="ent0010" id="entity_Retroalimentacion"><ellipse cx="238.6265" cy="43.0013" fill="#F1F1F1" rx="90.2565" ry="20.4513" style="stroke:#181818;stroke-width:0.5;"/><text fill="#000000" font-family="sans-serif" font-size="14" lengthAdjust="spacing" textLength="154.3213" x="161.4658" y="47.6497">Dar retroalimentaci&#243;n</text></g><!--entity Ciudadano--><g class="entity" data-entity="Ciudadano" data-source-line="3" data-uid="ent0002" id="entity_Ciudadano"><ellipse cx="43.4541" cy="202.35" fill="#F1F1F1" rx="8" ry="8" style="stroke:#181818;stroke-width:0.5;"/><path d="M43.4541,210.35 L43.4541,237.35 M30.4541,218.35 L56.4541,218.35 M43.4541,237.35 L30.4541,252.35 M43.4541,237.35 L56.4541,252.35" fill="none" style="stroke:#181818;stroke-width:0.5;"/><text fill="#000000" font-family="sans-serif" font-size="14" lengthAdjust="spacing" textLength="74.9082" x="6" y="266.8451">Ciudadano</text></g><!--link Ciudadano to AgendarCita--><g class="link" data-entity-1="Ciudadano" data-entity-2="AgendarCita" data-source-line="14" data-uid="lnk11" id="link_Ciudadano_AgendarCita"><path d="M55.71,270.41 C66.58,300.91 86.01,342.39 116.91,367 C134.75,381.21 152.403,388.0638 173.933,392.6738" fill="none" id="Ciudadano-to-AgendarCita" style="stroke:#181818;stroke-width:1;"/><polygon fill="#181818" points="179.8,393.93,171.837,388.1343,174.9108,392.8831,170.162,395.957,179.8,393.93" style="stroke:#181818;stroke-width:1;"/></g><!--link Ciudadano to ModificarCita--><g class="link" data-entity-1="Ciudadano" data-entity-2="ModificarCita" data-source-line="15" data-uid="lnk12" id="link_Ciudadano_ModificarCita"><path d="M78.06,270.64 C89.43,281.78 102.84,293.06 116.91,301 C137.34,312.54 156.1742,318.8583 177.8842,323.8783" fill="none" id="Ciudadano-to-ModificarCita" style="stroke:#181818;stroke-width:1;"/><polygon fill="#181818" points="183.73,325.23,175.8625,319.3053,178.8585,324.1036,174.0602,327.0996,183.73,325.23" style="stroke:#181818;stroke-width:1;"/></g><!--link Ciudadano to CancelarCita--><g class="link" data-entity-1="Ciudadano" data-entity-2="CancelarCita" data-source-line="16" data-uid="lnk13" id="link_Ciudadano_CancelarCita"><path d="M81.24,238.86 C111.24,244.45 148.0216,251.3003 181.2216,257.4903" fill="none" id="Ciudadano-to-CancelarCita" style="stroke:#181818;stroke-width:1;"/><polygon fill="#181818" points="187.12,258.59,179.0056,253.0082,182.2047,257.6736,177.5393,260.8727,187.12,258.59" style="stroke:#181818;stroke-width:1;"/></g><!--link Ciudadano to ConsultarEstado--><g class="link" data-entity-1="Ciudadano" data-entity-2="ConsultarEstado" data-source-line="17" data-uid="lnk14" id="link_Ciudadano_ConsultarEstado"><path d="M81.24,225.14 C104.12,220.88 128.4815,216.3391 156.2815,211.1591" fill="none" id="Ciudadano-to-ConsultarEstado" style="stroke:#181818;stroke-width:1;"/><polygon fill="#181818" points="162.18,210.06,152.5996,207.7763,157.2646,210.9759,154.065,215.6409,162.18,210.06" style="stroke:#181818;stroke-width:1;"/></g><!--link Ciudadano to RecibirNotificaciones--><g class="link" data-entity-1="Ciudadano" data-entity-2="RecibirNotificaciones" data-source-line="18" data-uid="lnk15" id="link_Ciudadano_RecibirNotificaciones"><path d="M74.87,193.39 C86.8,180.32 101.36,166.62 116.91,157 C134.01,146.43 148.5667,140.2963 167.5867,134.5463" fill="none" id="Ciudadano-to-RecibirNotificaciones" style="stroke:#181818;stroke-width:1;"/><polygon fill="#181818" points="173.33,132.81,163.5576,131.5856,168.5439,134.2569,165.8726,139.2433,173.33,132.81" style="stroke:#181818;stroke-width:1;"/></g><!--link Ciudadano to Retroalimentacion--><g class="link" data-entity-1="Ciudadano" data-entity-2="Retroalimentacion" data-source-line="19" data-uid="lnk16" id="link_Ciudadano_Retroalimentacion"><path d="M53.58,193.49 C63.6,159.33 82.96,110.43 116.91,81 C130.61,69.13 142.3032,62.8128 159.6132,57.1928" fill="none" id="Ciudadano-to-Retroalimentacion" style="stroke:#181818;stroke-width:1;"/><polygon fill="#181818" points="165.32,55.34,155.5247,54.3147,160.5644,56.884,157.9951,61.9237,165.32,55.34" style="stroke:#181818;stroke-width:1;"/></g><!--SRC=[RP0nRiCm34LtdOBmdYiK29oCxT0RC1Bj4519GAAdegVA4NAnA8PZc6wqyV_t8V9d6WnCeV1uDKXSA1ghX83Hj43NyvGmeMW7M66TGdY2A6Cc-0tGtbGfOYNeZYD9mWAH3UVG8lHjzkId9XuuRjbL-a_tA97o5dufRrYLEcLhC5N3f91e4tkPvzdpoM-AVE42eZOl4biPLEVSOdqvnwTFxST2LXGp_v1OW-utMT9ERXN_XR3s2OV3XolAExuMxxaMTjRkKk- -lsVFxBP-0000]--></g></svg>