<svg xmlns="http://www.w3.org/2000/svg" xmlns:xlink="http://www.w3.org/1999/xlink" contentStyleType="text/css" data-diagram-type="DESCRIPTION" height="473px" preserveAspectRatio="none" style="width:433px;height:473px;background:#FFFFFF;" version="1.1" viewBox="0 0 433 473" width="433px" zoomAndPan="magnify"><defs/><g><g class="cluster" data-entity="..3" data-source-line="5" data-uid="ent0004" id="cluster_..3"><rect fill="none" height="460" rx="2.5" ry="2.5" style="stroke:#181818;stroke-width:1;" width="296.35" x="131.61" y="7"/></g><!--entity VerAgenda--><g class="entity" data-entity="VerAgenda" data-source-line="6" data-uid="ent0005" id="entity_VerAgenda"><ellipse cx="279.7891" cy="428.0038" fill="#F1F1F1" rx="103.5691" ry="23.1138" style="stroke:#181818;stroke-width:0.5;"/><text fill="#000000" font-family="sans-serif" font-size="14" lengthAdjust="spacing" textLength="183.8936" x="187.8423" y="432.6522">Visualizar agenda de citas</text></g><!--entity AprobarCita--><g class="entity" data-entity="AprobarCita" data-source-line="7" data-uid="ent0006" id="entity_AprobarCita"><ellipse cx="279.787" cy="354.9954" fill="#F1F1F1" rx="62.277" ry="14.8554" style="stroke:#181818;stroke-width:0.5;"/><text fill="#000000" font-family="sans-serif" font-size="14" lengthAdjust="spacing" textLength="86.1123" x="236.7308" y="359.6438">Aprobar cita</text></g><!--entity RechazarCita--><g class="entity" data-entity="RechazarCita" data-source-line="8" data-uid="ent0007" id="entity_RechazarCita"><ellipse cx="279.7854" cy="289.9971" fill="#F1F1F1" rx="65.6854" ry="15.5371" style="stroke:#181818;stroke-width:0.5;"/><text fill="#000000" font-family="sans-serif" font-size="14" lengthAdjust="spacing" textLength="95.2793" x="232.1458" y="294.6455">Rechazar cita</text></g><!--entity ReprogramarCita--><g class="entity" data-entity="ReprogramarCita" data-source-line="9" data-uid="ent0008" id="entity_ReprogramarCita"><ellipse cx="279.788" cy="222.0016" fill="#F1F1F1" rx="76.708" ry="17.7416" style="stroke:#181818;stroke-width:0.5;"/><text fill="#000000" font-family="sans-serif" font-size="14" lengthAdjust="spacing" textLength="122.8486" x="218.3637" y="226.65">Reprogramar cita</text></g><!--entity RegistrarAsistencia--><g class="entity" data-entity="RegistrarAsistencia" data-source-line="10" data-uid="ent0009" id="entity_RegistrarAsistencia"><ellipse cx="279.7854" cy="139.9951" fill="#F1F1F1" rx="132.1754" ry="28.8351" style="stroke:#181818;stroke-width:0.5;"/><text fill="#000000" font-family="sans-serif" font-size="14" lengthAdjust="spacing" textLength="245.1641" x="157.2034" y="144.6435">Registrar asistencia de ciudadanos</text></g><!--entity Reportes--><g class="entity" data-entity="Reportes" data-source-line="11" data-uid="ent0010" id="entity_Reportes"><ellipse cx="279.7945" cy="50.0009" fill="#F1F1F1" rx="120.6045" ry="26.5209" style="stroke:#181818;stroke-width:0.5;"/><text fill="#000000" font-family="sans-serif" font-size="14" lengthAdjust="spacing" textLength="220.6436" x="169.4727" y="54.6493">Generar reportes y estad&#237;sticas</text></g><!--entity Funcionario--><g class="entity" data-entity="Funcionario" data-source-line="3" data-uid="ent0002" id="entity_Funcionario"><ellipse cx="46.8071" cy="226.35" fill="#F1F1F1" rx="8" ry="8" style="stroke:#181818;stroke-width:0.5;"/><path d="M46.8071,234.35 L46.8071,261.35 M33.8071,242.35 L59.8071,242.35 M46.8071,261.35 L33.8071,276.35 M46.8071,261.35 L59.8071,276.35" fill="none" style="stroke:#181818;stroke-width:0.5;"/><text fill="#000000" font-family="sans-serif" font-size="14" lengthAdjust="spacing" textLength="81.6143" x="6" y="290.8451">Funcionario</text></g><!--link Funcionario to VerAgenda--><g class="link" data-entity-1="Funcionario" data-entity-2="VerAgenda" data-source-line="14" data-uid="lnk11" id="link_Funcionario_VerAgenda"><path d="M60.76,294.57 C72.62,324.11 93.02,363.63 123.61,387 C142.44,401.38 160.0703,409.1927 182.9703,415.2627" fill="none" id="Funcionario-to-VerAgenda" style="stroke:#181818;stroke-width:1;"/><polygon fill="#181818" points="188.77,416.8,181.0953,410.6276,183.9369,415.5189,179.0456,418.3605,188.77,416.8" style="stroke:#181818;stroke-width:1;"/></g><!--link Funcionario to AprobarCita--><g class="link" data-entity-1="Funcionario" data-entity-2="AprobarCita" data-source-line="15" data-uid="lnk12" id="link_Funcionario_AprobarCita"><path d="M83.48,294.36 C95.3,305.09 109.16,315.77 123.61,323 C153.63,338.01 184.3382,345.1461 214.4782,349.3761" fill="none" id="Funcionario-to-AprobarCita" style="stroke:#181818;stroke-width:1;"/><polygon fill="#181818" points="220.42,350.21,212.0633,344.998,215.4685,349.5151,210.9514,352.9203,220.42,350.21" style="stroke:#181818;stroke-width:1;"/></g><!--link Funcionario to RechazarCita--><g class="link" data-entity-1="Funcionario" data-entity-2="RechazarCita" data-source-line="16" data-uid="lnk13" id="link_Funcionario_RechazarCita"><path d="M88.04,261.92 C125.4,267.42 175.4139,274.7865 217.0739,280.9165" fill="none" id="Funcionario-to-RechazarCita" style="stroke:#181818;stroke-width:1;"/><polygon fill="#181818" points="223.01,281.79,214.6882,276.5224,218.0633,281.0621,213.5236,284.4372,223.01,281.79" style="stroke:#181818;stroke-width:1;"/></g><!--link Funcionario to ReprogramarCita--><g class="link" data-entity-1="Funcionario" data-entity-2="ReprogramarCita" data-source-line="17" data-uid="lnk14" id="link_Funcionario_ReprogramarCita"><path d="M88.04,250.08 C122.81,244.96 167.764,238.3442 208.234,232.3842" fill="none" id="Funcionario-to-ReprogramarCita" style="stroke:#181818;stroke-width:1;"/><polygon fill="#181818" points="214.17,231.51,204.6832,228.864,209.2234,232.2385,205.8488,236.7786,214.17,231.51" style="stroke:#181818;stroke-width:1;"/></g><!--link Funcionario to RegistrarAsistencia--><g class="link" data-entity-1="Funcionario" data-entity-2="RegistrarAsistencia" data-source-line="18" data-uid="lnk15" id="link_Funcionario_RegistrarAsistencia"><path d="M83.36,217.64 C95.28,206.51 109.22,195.17 123.61,187 C142.83,176.09 159.1288,169.2577 180.4288,162.5277" fill="none" id="Funcionario-to-RegistrarAsistencia" style="stroke:#181818;stroke-width:1;"/><polygon fill="#181818" points="186.15,160.72,176.3631,159.6174,181.3823,162.2264,178.7733,167.2457,186.15,160.72" style="stroke:#181818;stroke-width:1;"/></g><!--link Funcionario to Reportes--><g class="link" data-entity-1="Funcionario" data-entity-2="Reportes" data-source-line="19" data-uid="lnk16" id="link_Funcionario_Reportes"><path d="M56.01,217.63 C65.87,180.73 86,125.98 123.61,94 C139.4,80.58 153.326,73.1012 173.246,66.6012" fill="none" id="Funcionario-to-Reportes" style="stroke:#181818;stroke-width:1;"/><polygon fill="#181818" points="178.95,64.74,169.1531,63.7292,174.1967,66.291,171.6348,71.3345,178.95,64.74" style="stroke:#181818;stroke-width:1;"/></g><!--SRC=[RP0nRiCm34LtdOBmdYiKC0gqUuRihCGg11mf8EcX2NAadA8Ng-mwWHHRa_Z_umV9WRuDB8DmF1e45lB6EJc7th90zp4cNseKpXsWGbKxDy6Oua1mTL3UgEHH2Re3wuW3Nr008wM040Wy6-eSSY3fPxdjwi-IlqhB1CxS8hoNkYNtv8zugT67iiMMb2XuQl6dkDKHMKscuRLyg6oyB30639YoBXaBrZ-fDkUJ4aqfGkSiHWe_G6eOVkzgxF6Hyc-wctFLSM6tUwlkzEhKbtdrcbEipNRnjRzUQYDZ7laF]--></g></svg>