<svg xmlns="http://www.w3.org/2000/svg" xmlns:xlink="http://www.w3.org/1999/xlink" contentStyleType="text/css" data-diagram-type="STATE" height="1031px" preserveAspectRatio="none" style="width:702px;height:1031px;background:#FFFFFF;" version="1.1" viewBox="0 0 702 1031" width="702px" zoomAndPan="magnify"><defs><filter height="300%" id="f12o3tjov4fshz" width="300%" x="-1" y="-1"><feGaussianBlur result="blurOut" stdDeviation="2"/><feColorMatrix in="blurOut" result="blurOut2" type="matrix" values="0 0 0 0 0 0 0 0 0 0 0 0 0 0 0 0 0 0 .4 0"/><feOffset dx="4" dy="4" in="blurOut2" result="blurOut3"/><feBlend in="SourceGraphic" in2="blurOut3" mode="normal"/></filter></defs><g><g id="PANEL_CIUDADANO"><rect fill="#FEFECE" filter="url(#f12o3tjov4fshz)" height="50" rx="12.5" ry="12.5" style="stroke:#A80036;stroke-width:1;" width="158.4961" x="259.85" y="7"/><line style="stroke:#A80036;stroke-width:1;" x1="259.85" x2="418.3461" y1="33.2969" y2="33.2969"/><text fill="#000000" font-family="sans-serif" font-size="14" lengthAdjust="spacing" textLength="138.4961" x="269.85" y="24.9951">PANEL_CIUDADANO</text></g><g id="INGRESAR_DATOS"><rect fill="#FEFECE" filter="url(#f12o3tjov4fshz)" height="50" rx="12.5" ry="12.5" style="stroke:#A80036;stroke-width:1;" width="148.0303" x="265.08" y="156"/><line style="stroke:#A80036;stroke-width:1;" x1="265.08" x2="413.1103" y1="182.2969" y2="182.2969"/><text fill="#000000" font-family="sans-serif" font-size="14" lengthAdjust="spacing" textLength="128.0303" x="275.08" y="173.9951">INGRESAR_DATOS</text></g><g id="VALIDAR_DATOS"><rect fill="#FEFECE" filter="url(#f12o3tjov4fshz)" height="50" rx="12.5" ry="12.5" style="stroke:#A80036;stroke-width:1;" width="136.9834" x="270.61" y="305"/><line style="stroke:#A80036;stroke-width:1;" x1="270.61" x2="407.5934" y1="331.2969" y2="331.2969"/><text fill="#000000" font-family="sans-serif" font-size="14" lengthAdjust="spacing" textLength="116.9834" x="280.61" y="322.9951">VALIDAR_DATOS</text></g><rect fill="none" filter="url(#f12o3tjov4fshz)" height="452.2969" rx="12.5" ry="12.5" style="stroke:#A80036;stroke-width:1;" width="664.2" x="7" y="454"/><path d="M19.5,454 L658.7,454 A12.5,12.5 0 0 1 671.2,466.5 L671.2,480.2969 L7,480.2969 L7,466.5 A12.5,12.5 0 0 1 19.5,454" fill="#FEFECE"/><path d="M7,480.2969 L671.2,480.2969 L671.2,893.7969 A12.5,12.5 0 0 1 658.7,906.2969 L19.5,906.2969 A12.5,12.5 0 0 1 7,893.7969 L7,480.2969" fill="#FEFECE"/><rect fill="none" height="452.2969" rx="12.5" ry="12.5" style="stroke:#A80036;stroke-width:1;" width="664.2" x="7" y="454"/><line style="stroke:#A80036;stroke-width:1;" x1="7" x2="671.2" y1="480.2969" y2="480.2969"/><text fill="#000000" font-family="sans-serif" font-size="14" lengthAdjust="spacing" textLength="134.2305" x="271.9848" y="471.9951">MOSTRAR_ESTADO</text><g id="MOSTRAR_ESTADO.verEstado"><rect fill="#FEFECE" filter="url(#f12o3tjov4fshz)" height="50" rx="12.5" ry="12.5" style="stroke:#A80036;stroke-width:1;" width="95.8242" x="148.29" y="586.2969"/><line style="stroke:#A80036;stroke-width:1;" x1="148.29" x2="244.1142" y1="612.5938" y2="612.5938"/><text fill="#000000" font-family="sans-serif" font-size="14" lengthAdjust="spacing" textLength="75.8242" x="158.29" y="604.292">Ver estado</text></g><g id="MOSTRAR_ESTADO.opcionesAdicionales"><rect fill="#FEFECE" filter="url(#f12o3tjov4fshz)" height="50" rx="12.5" ry="12.5" style="stroke:#A80036;stroke-width:1;" width="168.0459" x="112.18" y="741.2969"/><line style="stroke:#A80036;stroke-width:1;" x1="112.18" x2="280.2259" y1="767.5938" y2="767.5938"/><text fill="#000000" font-family="sans-serif" font-size="14" lengthAdjust="spacing" textLength="148.0459" x="122.18" y="759.292">Opciones adicionales</text></g><ellipse cx="196.2" cy="501.2969" fill="#000000" filter="url(#f12o3tjov4fshz)" rx="10" ry="10" style="stroke:#000000;stroke-width:1;"/><ellipse cx="196.2" cy="877.2969" fill="none" filter="url(#f12o3tjov4fshz)" rx="11" ry="11" style="stroke:#000000;stroke-width:1;"/><ellipse cx="196.2" cy="877.2969" fill="#000000" rx="6" ry="6" style="stroke:#000000;stroke-width:1;"/><!--link *start*MOSTRAR_ESTADO to verEstado--><g class="link" data-entity-1=".start.MOSTRAR_ESTADO" data-entity-2="verEstado" data-source-line="23" data-uid="lnk7" id="link_.start.MOSTRAR_ESTADO_verEstado"><path d="M196.2,511.5069 C196.2,527.8269 196.2,556.3369 196.2,579.9269" fill="none" id="*start*MOSTRAR_ESTADO-to-verEstado" style="stroke:#0000FF;stroke-width:1;"/><polygon fill="#0000FF" points="196.2,585.9269,200.2,576.9269,196.2,580.9269,192.2,576.9269,196.2,585.9269" style="stroke:#0000FF;stroke-width:1;"/><path d="M201.2,534.2969 L201.2,559.2969 L529.2,559.2969 L529.2,544.2969 L519.2,534.2969 L201.2,534.2969" fill="#FBFB77" filter="url(#f12o3tjov4fshz)" style="stroke:#A80036;stroke-width:1;"/><path d="M519.2,534.2969 L519.2,544.2969 L529.2,544.2969 L519.2,534.2969" fill="#FBFB77" style="stroke:#A80036;stroke-width:1;"/><text fill="#000000" font-family="sans-serif" font-size="13" font-weight="bold" lengthAdjust="spacing" textLength="150.8774" x="207.2" y="551.3638">El ciudadano solicita</text><text fill="#000000" font-family="sans-serif" font-size="13" lengthAdjust="spacing" textLength="152.4326" x="362.2098" y="551.3638">ver el estado de su cita</text></g><!--link verEstado to opcionesAdicionales--><g class="link" data-entity-1="verEstado" data-entity-2="opcionesAdicionales" data-source-line="27" data-uid="lnk8" id="link_verEstado_opcionesAdicionales"><path d="M196.2,636.5369 C196.2,665.1069 196.2,706.2869 196.2,734.9169" fill="none" id="verEstado-to-opcionesAdicionales" style="stroke:#0000FF;stroke-width:1;"/><polygon fill="#0000FF" points="196.2,740.9169,200.2,731.9169,196.2,735.9169,192.2,731.9169,196.2,740.9169" style="stroke:#0000FF;stroke-width:1;"/><path d="M201.2,659.2969 L201.2,714.2969 L363.2,714.2969 L363.2,669.2969 L353.2,659.2969 L201.2,659.2969" fill="#FBFB77" filter="url(#f12o3tjov4fshz)" style="stroke:#A80036;stroke-width:1;"/><path d="M353.2,659.2969 L353.2,669.2969 L363.2,669.2969 L353.2,659.2969" fill="#FBFB77" style="stroke:#A80036;stroke-width:1;"/><text fill="#000000" font-family="sans-serif" font-size="13" font-weight="bold" lengthAdjust="spacing" textLength="126.0073" x="207.2" y="676.3638">El sistema ofrece</text><text fill="#000000" font-family="sans-serif" font-size="13" lengthAdjust="spacing" textLength="4.3799" x="333.2073" y="676.3638">:</text><text fill="#000000" font-family="sans-serif" font-size="13" lengthAdjust="spacing" textLength="124.7061" x="215.4646" y="691.4966">&#176; Reprogramar cita</text><text fill="#000000" font-family="sans-serif" font-size="13" lengthAdjust="spacing" textLength="130.9902" x="215.4646" y="706.6294">&#176; Enviar notificaci&#243;n</text></g><!--link opcionesAdicionales to *end*MOSTRAR_ESTADO--><g class="link" data-entity-1="opcionesAdicionales" data-entity-2=".end.MOSTRAR_ESTADO" data-source-line="35" data-uid="lnk10" id="link_opcionesAdicionales_.end.MOSTRAR_ESTADO"><path d="M111.93,778.7169 C76.07,785.4569 40,795.4469 29.2,809.2969 C18.54,822.9669 18,835.0669 29.2,848.2969 C49.33,872.0869 144.6507,875.584 178.8807,876.114" fill="none" id="opcionesAdicionales-to-*end*MOSTRAR_ESTADO" style="stroke:#0000FF;stroke-width:1;"/><polygon fill="#0000FF" points="184.88,876.2069,175.943,872.068,179.8806,876.1295,175.8192,880.0671,184.88,876.2069" style="stroke:#0000FF;stroke-width:1;"/><path d="M34.2,814.2969 L34.2,839.2969 L334.2,839.2969 L334.2,824.2969 L324.2,814.2969 L34.2,814.2969" fill="#FBFB77" filter="url(#f12o3tjov4fshz)" style="stroke:#A80036;stroke-width:1;"/><path d="M324.2,814.2969 L324.2,824.2969 L334.2,824.2969 L324.2,814.2969" fill="#FBFB77" style="stroke:#A80036;stroke-width:1;"/><text fill="#000000" font-family="sans-serif" font-size="13" font-weight="bold" lengthAdjust="spacing" textLength="150.8774" x="40.2" y="831.3638">El ciudadano solicita</text><text fill="#000000" font-family="sans-serif" font-size="13" lengthAdjust="spacing" textLength="124.7568" x="195.2098" y="831.3638">confirmar la acci&#243;n</text></g><!--link opcionesAdicionales to *end*MOSTRAR_ESTADO--><g class="link" data-entity-1="opcionesAdicionales" data-entity-2=".end.MOSTRAR_ESTADO" data-source-line="38" data-uid="lnk11" id="link_opcionesAdicionales_.end.MOSTRAR_ESTADO"><path d="M280.54,782.2869 C308.57,789.1069 334.81,798.1769 343.2,809.2969 C353.64,823.1369 354.25,834.9469 343.2,848.2969 C325.89,869.2169 244.8649,874.3904 213.4849,875.6804" fill="none" id="opcionesAdicionales-to-*end*MOSTRAR_ESTADO-1" style="stroke:#FF0000;stroke-width:1;"/><polygon fill="#FF0000" points="207.49,875.9269,216.6467,879.5538,212.4858,875.7215,216.3181,871.5606,207.49,875.9269" style="stroke:#FF0000;stroke-width:1;"/><path d="M356.2,814.2969 L356.2,839.2969 L662.2,839.2969 L662.2,824.2969 L652.2,814.2969 L356.2,814.2969" fill="#FBFB77" filter="url(#f12o3tjov4fshz)" style="stroke:#A80036;stroke-width:1;"/><path d="M652.2,814.2969 L652.2,824.2969 L662.2,824.2969 L652.2,814.2969" fill="#FBFB77" style="stroke:#A80036;stroke-width:1;"/><text fill="#000000" font-family="sans-serif" font-size="13" font-weight="bold" lengthAdjust="spacing" textLength="150.8774" x="362.2" y="831.3638">El ciudadano solicita</text><text fill="#000000" font-family="sans-serif" font-size="13" lengthAdjust="spacing" textLength="130.292" x="517.2098" y="831.3638">cancelar la consulta</text></g><g id="ESTADO_CITA"><rect fill="#FEFECE" filter="url(#f12o3tjov4fshz)" height="50" rx="12.5" ry="12.5" style="stroke:#A80036;stroke-width:1;" width="154.2305" x="261.98" y="967.3"/><line style="stroke:#A80036;stroke-width:1;" x1="261.98" x2="416.2105" y1="993.5969" y2="993.5969"/><text fill="#000000" font-family="sans-serif" font-size="14" lengthAdjust="spacing" textLength="134.2305" x="271.98" y="985.2951">MOSTRAR_ESTADO</text></g><!--link PANEL_CIUDADANO to INGRESAR_DATOS--><g class="link" data-entity-1="PANEL_CIUDADANO" data-entity-2="INGRESAR_DATOS" data-source-line="10" data-uid="lnk2" id="link_PANEL_CIUDADANO_INGRESAR_DATOS"><path d="M339.1,57.28 C339.1,84.51 339.1,122.44 339.1,149.69" fill="none" id="PANEL_CIUDADANO-to-INGRESAR_DATOS" style="stroke:#A80036;stroke-width:1;"/><polygon fill="#A80036" points="339.1,155.69,343.1,146.69,339.1,150.69,335.1,146.69,339.1,155.69" style="stroke:#A80036;stroke-width:1;"/><path d="M344.1,92 L344.1,117 L693.1,117 L693.1,102 L683.1,92 L344.1,92" fill="#FBFB77" filter="url(#f12o3tjov4fshz)" style="stroke:#A80036;stroke-width:1;"/><path d="M683.1,92 L683.1,102 L693.1,102 L683.1,92" fill="#FBFB77" style="stroke:#A80036;stroke-width:1;"/><text fill="#000000" font-family="sans-serif" font-size="13" font-weight="bold" lengthAdjust="spacing" textLength="150.8774" x="350.1" y="109.0669">El ciudadano solicita</text><text fill="#000000" font-family="sans-serif" font-size="13" lengthAdjust="spacing" textLength="173.2466" x="505.1098" y="109.0669">ingresar datos de consulta</text></g><!--link INGRESAR_DATOS to VALIDAR_DATOS--><g class="link" data-entity-1="INGRESAR_DATOS" data-entity-2="VALIDAR_DATOS" data-source-line="13" data-uid="lnk3" id="link_INGRESAR_DATOS_VALIDAR_DATOS"><path d="M339.1,206.28 C339.1,233.51 339.1,271.44 339.1,298.69" fill="none" id="INGRESAR_DATOS-to-VALIDAR_DATOS" style="stroke:#A80036;stroke-width:1;"/><polygon fill="#A80036" points="339.1,304.69,343.1,295.69,339.1,299.69,335.1,295.69,339.1,304.69" style="stroke:#A80036;stroke-width:1;"/><path d="M344.1,241 L344.1,266 L626.1,266 L626.1,251 L616.1,241 L344.1,241" fill="#FBFB77" filter="url(#f12o3tjov4fshz)" style="stroke:#A80036;stroke-width:1;"/><path d="M616.1,241 L616.1,251 L626.1,251 L616.1,241" fill="#FBFB77" style="stroke:#A80036;stroke-width:1;"/><text fill="#000000" font-family="sans-serif" font-size="13" font-weight="bold" lengthAdjust="spacing" textLength="123.9063" x="350.1" y="258.0669">El sistema valida</text><text fill="#000000" font-family="sans-serif" font-size="13" lengthAdjust="spacing" textLength="133.8086" x="478.1386" y="258.0669">los datos ingresados</text></g><!--link VALIDAR_DATOS to MOSTRAR_ESTADO--><g class="link" data-entity-1="VALIDAR_DATOS" data-entity-2="MOSTRAR_ESTADO" data-source-line="16" data-uid="lnk4" id="link_VALIDAR_DATOS_MOSTRAR_ESTADO"><path d="M339.1,355.48 C339.1,378 339.1,407.86 339.1,447.66" fill="none" id="VALIDAR_DATOS-to-MOSTRAR_ESTADO" style="stroke:#A80036;stroke-width:1;"/><polygon fill="#A80036" points="339.1,453.66,343.1,444.66,339.1,448.66,335.1,444.66,339.1,453.66" style="stroke:#A80036;stroke-width:1;"/><path d="M344.1,390 L344.1,415 L633.1,415 L633.1,400 L623.1,390 L344.1,390" fill="#FBFB77" filter="url(#f12o3tjov4fshz)" style="stroke:#A80036;stroke-width:1;"/><path d="M623.1,390 L623.1,400 L633.1,400 L623.1,390" fill="#FBFB77" style="stroke:#A80036;stroke-width:1;"/><text fill="#000000" font-family="sans-serif" font-size="13" font-weight="bold" lengthAdjust="spacing" textLength="140.4229" x="350.1" y="407.0669">El sistema muestra</text><text fill="#000000" font-family="sans-serif" font-size="13" lengthAdjust="spacing" textLength="123.8301" x="494.6552" y="407.0669">el estado de la cita</text></g><!--link MOSTRAR_ESTADO to ESTADO_CITA--><g class="link" data-entity-1="MOSTRAR_ESTADO" data-entity-2="ESTADO_CITA" data-source-line="19" data-uid="lnk5" id="link_MOSTRAR_ESTADO_ESTADO_CITA"><path d="M339.1,906.55 C339.1,930.6 339.1,945.79 339.1,960.96" fill="none" id="MOSTRAR_ESTADO-to-ESTADO_CITA" style="stroke:#A80036;stroke-width:1;"/><polygon fill="#A80036" points="339.1,966.96,343.1,957.96,339.1,961.96,335.1,957.96,339.1,966.96" style="stroke:#A80036;stroke-width:1;"/></g><!--SRC=[dLD1JiCm4Bpx5IkuHUe7E21P94ALe4LjuO8GMkmjikhQo4vwGVm9YH_0nrYxeMsYW83RPZOxCpkRn9Ln47ma8KIiiIQuafFgulviV5tAKawcBJgUdC-gkPpTbt8ndRVWZRmObptiSZfVp1YhvWjPVaqVTT4Zm0ZRaeKMKeYUA8n6ftr9vvd8Ex36hKwWA2eBoZGQDJeFqLkZJ8r50SOz1eeOG6Fj8sW2vLriR8r2T2cpIdU70P5eOarhX0rQevE0JQoPkvNIFWhHuSdClIH-e5ut5EkGkCa2byoOV5k4j9CGNQPCtablA7bu5WBWjhY3qUtnWsteZgSs5AfCpwtVviapNLknQMq1jDUzIQ_aVhxieSgkFhJXdvJnZgBK9XLeAVOCyMCd8RyCfAWeJW2u1V3-2ZDw2lunu9fFdVpiEvNR60QPpooDGcK-tXptoEciSM1ysXe1t3l9Ammx740Fr-Am_v0hVvLB4v9xlZEghSllHGBfVsYWKsIt4hk_uEKJ]--></g></svg>