<svg xmlns="http://www.w3.org/2000/svg" xmlns:xlink="http://www.w3.org/1999/xlink" contentStyleType="text/css" data-diagram-type="STATE" height="142px" preserveAspectRatio="none" style="width:681px;height:142px;background:#FFFFFF;" version="1.1" viewBox="0 0 681 142" width="681px" zoomAndPan="magnify"><defs/><g><ellipse cx="52.15" cy="16" fill="#222222" rx="10" ry="10" style="stroke:#222222;stroke-width:1;"/><g id="Pendiente"><rect fill="#F1F1F1" height="50" rx="12.5" ry="12.5" style="stroke:#181818;stroke-width:0.5;" width="90.2939" x="7" y="86"/><line style="stroke:#181818;stroke-width:0.5;" x1="7" x2="97.2939" y1="112.2969" y2="112.2969"/><text fill="#000000" font-family="sans-serif" font-size="14" lengthAdjust="spacing" textLength="70.2939" x="17" y="103.9951">Pendiente</text></g><g id="Confirmada"><rect fill="#F1F1F1" height="50" rx="12.5" ry="12.5" style="stroke:#181818;stroke-width:0.5;" width="101.4707" x="264.41" y="86"/><line style="stroke:#181818;stroke-width:0.5;" x1="264.41" x2="365.8807" y1="112.2969" y2="112.2969"/><text fill="#000000" font-family="sans-serif" font-size="14" lengthAdjust="spacing" textLength="81.4707" x="274.41" y="103.9951">Confirmada</text></g><g id="Rechazada"><rect fill="#F1F1F1" height="50" rx="12.5" ry="12.5" style="stroke:#181818;stroke-width:0.5;" width="96.8838" x="132.71" y="86"/><line style="stroke:#181818;stroke-width:0.5;" x1="132.71" x2="229.5938" y1="112.2969" y2="112.2969"/><text fill="#000000" font-family="sans-serif" font-size="14" lengthAdjust="spacing" textLength="76.8838" x="142.71" y="103.9951">Rechazada</text></g><g id="Cancelada"><rect fill="#F1F1F1" height="50" rx="12.5" ry="12.5" style="stroke:#181818;stroke-width:0.5;" width="93.4727" x="524.41" y="86"/><line style="stroke:#181818;stroke-width:0.5;" x1="524.41" x2="617.8827" y1="112.2969" y2="112.2969"/><text fill="#000000" font-family="sans-serif" font-size="14" lengthAdjust="spacing" textLength="73.4727" x="534.41" y="103.9951">Cancelada</text></g><g id="Realizada"><rect fill="#F1F1F1" height="50" rx="12.5" ry="12.5" style="stroke:#181818;stroke-width:0.5;" width="88.0928" x="401.1" y="86"/><line style="stroke:#181818;stroke-width:0.5;" x1="401.1" x2="489.1928" y1="112.2969" y2="112.2969"/><text fill="#000000" font-family="sans-serif" font-size="14" lengthAdjust="spacing" textLength="68.0928" x="411.1" y="103.9951">Realizada</text></g><ellipse cx="664.15" cy="111" fill="none" rx="11" ry="11" style="stroke:#222222;stroke-width:1;"/><ellipse cx="664.15" cy="111" fill="#222222" rx="6" ry="6" style="stroke:#222222;stroke-width:1;"/><!--link *start* to Pendiente--><g class="link" data-entity-1=".start." data-entity-2="Pendiente" data-source-line="1" data-uid="lnk4" id="link_.start._Pendiente"><path d="M52.15,26.26 C52.15,39.95 52.15,60.07 52.15,79.52" fill="none" id="*start*-to-Pendiente" style="stroke:#181818;stroke-width:1;"/><polygon fill="#181818" points="52.15,85.52,56.15,76.52,52.15,80.52,48.15,76.52,52.15,85.52" style="stroke:#181818;stroke-width:1;"/></g><!--link Pendiente to Confirmada--><g class="link" data-entity-1="Pendiente" data-entity-2="Confirmada" data-source-line="3" data-uid="lnk6" id="link_Pendiente_Confirmada"><path d="M80.1,85.71 C94.66,74.25 113.4,61.95 132.65,56 C173.84,43.27 188.28,43.85 229.65,56 C249.8,61.92 264.8647,70.6539 280.3847,82.1239" fill="none" id="Pendiente-to-Confirmada" style="stroke:#181818;stroke-width:1;"/><polygon fill="#181818" points="285.21,85.69,280.3495,77.124,281.189,82.7183,275.5947,83.5577,285.21,85.69" style="stroke:#181818;stroke-width:1;"/></g><!--link Pendiente to Rechazada--><g class="link" data-entity-1="Pendiente" data-entity-2="Rechazada" data-source-line="4" data-uid="lnk8" id="link_Pendiente_Rechazada"><path d="M97.75,111 C109.26,111 114.77,111 126.28,111" fill="none" id="Pendiente-to-Rechazada" style="stroke:#181818;stroke-width:1;"/><polygon fill="#181818" points="132.28,111,123.28,107,127.28,111,123.28,115,132.28,111" style="stroke:#181818;stroke-width:1;"/></g><!--link Pendiente to Cancelada--><g class="link" data-entity-1="Pendiente" data-entity-2="Cancelada" data-source-line="5" data-uid="lnk10" id="link_Pendiente_Cancelada"><path d="M80.1,85.71 C94.66,74.25 113.4,61.95 132.65,56 C208.44,32.58 413.78,32.8 489.65,56 C509.07,61.94 523.3135,70.5568 538.0635,82.0268" fill="none" id="Pendiente-to-Cancelada" style="stroke:#181818;stroke-width:1;"/><polygon fill="#181818" points="542.8,85.71,538.1508,77.0276,538.853,82.6407,533.2398,83.3428,542.8,85.71" style="stroke:#181818;stroke-width:1;"/></g><!--link Confirmada to Realizada--><g class="link" data-entity-1="Confirmada" data-entity-2="Realizada" data-source-line="7" data-uid="lnk12" id="link_Confirmada_Realizada"><path d="M366.18,111 C377.7,111 383.21,111 394.73,111" fill="none" id="Confirmada-to-Realizada" style="stroke:#181818;stroke-width:1;"/><polygon fill="#181818" points="400.73,111,391.73,107,395.73,111,391.73,115,400.73,111" style="stroke:#181818;stroke-width:1;"/></g><!--link Confirmada to Cancelada--><g class="link" data-entity-1="Confirmada" data-entity-2="Cancelada" data-source-line="8" data-uid="lnk13" id="link_Confirmada_Cancelada"><path d="M345.08,85.69 C360.6,74.22 380.5,61.92 400.65,56 C438.6,44.85 451.82,44.43 489.65,56 C509.07,61.94 523.3135,70.5568 538.0635,82.0268" fill="none" id="Confirmada-to-Cancelada" style="stroke:#181818;stroke-width:1;"/><polygon fill="#181818" points="542.8,85.71,538.1508,77.0276,538.853,82.6407,533.2398,83.3428,542.8,85.71" style="stroke:#181818;stroke-width:1;"/></g><!--link Realizada to *end*--><g class="link" data-entity-1="Realizada" data-entity-2=".end." data-source-line="10" data-uid="lnk15" id="link_Realizada_.end."><path d="M472.7,85.72 C487.06,74.25 505.58,61.95 524.65,56 C564.1,43.68 580.15,38.6 617.65,56 C637.61,65.26 649.2497,82.5103 656.3597,95.6803" fill="none" id="Realizada-to-*end*" style="stroke:#181818;stroke-width:1;"/><polygon fill="#181818" points="659.21,100.96,658.4543,91.1402,656.8347,96.5602,651.4147,94.9406,659.21,100.96" style="stroke:#181818;stroke-width:1;"/></g><!--link Rechazada to *end*--><g class="link" data-entity-1="Rechazada" data-entity-2=".end." data-source-line="11" data-uid="lnk16" id="link_Rechazada_.end."><path d="M210.29,85.7 C225.43,74.23 244.86,61.93 264.65,56 C339.79,33.48 546.49,22.98 617.65,56 C637.61,65.26 649.2497,82.5103 656.3597,95.6803" fill="none" id="Rechazada-to-*end*" style="stroke:#181818;stroke-width:1;"/><polygon fill="#181818" points="659.21,100.96,658.4543,91.1402,656.8347,96.5602,651.4147,94.9406,659.21,100.96" style="stroke:#181818;stroke-width:1;"/></g><!--link Cancelada to *end*--><g class="link" data-entity-1="Cancelada" data-entity-2=".end." data-source-line="12" data-uid="lnk17" id="link_Cancelada_.end."><path d="M618.37,111 C629.82,111 635.26,111 646.7,111" fill="none" id="Cancelada-to-*end*" style="stroke:#181818;stroke-width:1;"/><polygon fill="#181818" points="652.7,111,643.7,107,647.7,111,643.7,115,652.7,111" style="stroke:#181818;stroke-width:1;"/></g><!--SRC=[YzQALT3LjLC8ICrBoKpDAqdbue8p5NIBW3BE-NbfcKMvYIc9w391gSaPYLLO99mJyv9JSq0IN0ZTC3s9EPbWFUWoI9hWYY0oqLgnN72x449m3N0X0000]--></g></svg>