<svg xmlns="http://www.w3.org/2000/svg" xmlns:xlink="http://www.w3.org/1999/xlink" contentStyleType="text/css" data-diagram-type="CLASS" height="546px" preserveAspectRatio="none" style="width:456px;height:546px;background:#FFFFFF;" version="1.1" viewBox="0 0 456 546" width="456px" zoomAndPan="magnify"><defs/><g><!--class Usuario--><g class="entity" data-entity="Usuario" data-source-line="1" data-uid="ent0002" id="entity_Usuario"><rect fill="#F1F1F1" height="48" rx="2.5" ry="2.5" style="stroke:#181818;stroke-width:0.5;" width="85.2041" x="222.17" y="7"/><ellipse cx="237.17" cy="23" fill="#ADD1B2" rx="11" ry="11" style="stroke:#181818;stroke-width:1;"/><path d="M240.1388,28.6406 Q239.5606,28.9375 238.92,29.0781 Q238.2794,29.2344 237.5763,29.2344 Q235.0763,29.2344 233.7481,27.5938 Q232.4356,25.9375 232.4356,22.8125 Q232.4356,19.6875 233.7481,18.0313 Q235.0763,16.375 237.5763,16.375 Q238.2794,16.375 238.92,16.5313 Q239.5763,16.6875 240.1388,16.9844 L240.1388,19.7031 Q239.5138,19.125 238.92,18.8594 Q238.3263,18.5781 237.7013,18.5781 Q236.3575,18.5781 235.67,19.6563 Q234.9825,20.7188 234.9825,22.8125 Q234.9825,24.9063 235.67,25.9844 Q236.3575,27.0469 237.7013,27.0469 Q238.3263,27.0469 238.92,26.7813 Q239.5138,26.5 240.1388,25.9219 L240.1388,28.6406 Z " fill="#000000"/><text fill="#000000" font-family="sans-serif" font-size="14" lengthAdjust="spacing" textLength="53.2041" x="251.17" y="27.8467">Usuario</text><line style="stroke:#181818;stroke-width:0.5;" x1="223.17" x2="306.3741" y1="39" y2="39"/><line style="stroke:#181818;stroke-width:0.5;" x1="223.17" x2="306.3741" y1="47" y2="47"/></g><!--class Ciudadano--><g class="entity" data-entity="Ciudadano" data-source-line="4" data-uid="ent0003" id="entity_Ciudadano"><rect fill="#F1F1F1" height="48" rx="2.5" ry="2.5" style="stroke:#181818;stroke-width:0.5;" width="106.9082" x="281.32" y="241"/><ellipse cx="296.32" cy="257" fill="#ADD1B2" rx="11" ry="11" style="stroke:#181818;stroke-width:1;"/><path d="M299.2888,262.6406 Q298.7106,262.9375 298.07,263.0781 Q297.4294,263.2344 296.7263,263.2344 Q294.2263,263.2344 292.8981,261.5938 Q291.5856,259.9375 291.5856,256.8125 Q291.5856,253.6875 292.8981,252.0313 Q294.2263,250.375 296.7263,250.375 Q297.4294,250.375 298.07,250.5313 Q298.7263,250.6875 299.2888,250.9844 L299.2888,253.7031 Q298.6638,253.125 298.07,252.8594 Q297.4763,252.5781 296.8513,252.5781 Q295.5075,252.5781 294.82,253.6563 Q294.1325,254.7188 294.1325,256.8125 Q294.1325,258.9063 294.82,259.9844 Q295.5075,261.0469 296.8513,261.0469 Q297.4763,261.0469 298.07,260.7813 Q298.6638,260.5 299.2888,259.9219 L299.2888,262.6406 Z " fill="#000000"/><text fill="#000000" font-family="sans-serif" font-size="14" lengthAdjust="spacing" textLength="74.9082" x="310.32" y="261.8467">Ciudadano</text><line style="stroke:#181818;stroke-width:0.5;" x1="282.32" x2="387.2282" y1="273" y2="273"/><line style="stroke:#181818;stroke-width:0.5;" x1="282.32" x2="387.2282" y1="281" y2="281"/></g><!--class Funcionario--><g class="entity" data-entity="Funcionario" data-source-line="7" data-uid="ent0004" id="entity_Funcionario"><rect fill="#F1F1F1" height="48" rx="2.5" ry="2.5" style="stroke:#181818;stroke-width:0.5;" width="113.6143" x="60.96" y="116"/><ellipse cx="75.96" cy="132" fill="#ADD1B2" rx="11" ry="11" style="stroke:#181818;stroke-width:1;"/><path d="M78.9288,137.6406 Q78.3506,137.9375 77.71,138.0781 Q77.0694,138.2344 76.3663,138.2344 Q73.8663,138.2344 72.5381,136.5938 Q71.2256,134.9375 71.2256,131.8125 Q71.2256,128.6875 72.5381,127.0313 Q73.8663,125.375 76.3663,125.375 Q77.0694,125.375 77.71,125.5313 Q78.3663,125.6875 78.9288,125.9844 L78.9288,128.7031 Q78.3038,128.125 77.71,127.8594 Q77.1163,127.5781 76.4913,127.5781 Q75.1475,127.5781 74.46,128.6563 Q73.7725,129.7188 73.7725,131.8125 Q73.7725,133.9063 74.46,134.9844 Q75.1475,136.0469 76.4913,136.0469 Q77.1163,136.0469 77.71,135.7813 Q78.3038,135.5 78.9288,134.9219 L78.9288,137.6406 Z " fill="#000000"/><text fill="#000000" font-family="sans-serif" font-size="14" lengthAdjust="spacing" textLength="81.6143" x="89.96" y="136.8467">Funcionario</text><line style="stroke:#181818;stroke-width:0.5;" x1="61.96" x2="173.5743" y1="148" y2="148"/><line style="stroke:#181818;stroke-width:0.5;" x1="61.96" x2="173.5743" y1="156" y2="156"/></g><!--class Administrador--><g class="entity" data-entity="Administrador" data-source-line="10" data-uid="ent0005" id="entity_Administrador"><rect fill="#F1F1F1" height="48" rx="2.5" ry="2.5" style="stroke:#181818;stroke-width:0.5;" width="131.0801" x="318.23" y="116"/><ellipse cx="333.23" cy="132" fill="#ADD1B2" rx="11" ry="11" style="stroke:#181818;stroke-width:1;"/><path d="M336.1988,137.6406 Q335.6206,137.9375 334.98,138.0781 Q334.3394,138.2344 333.6363,138.2344 Q331.1363,138.2344 329.8081,136.5938 Q328.4956,134.9375 328.4956,131.8125 Q328.4956,128.6875 329.8081,127.0313 Q331.1363,125.375 333.6363,125.375 Q334.3394,125.375 334.98,125.5313 Q335.6363,125.6875 336.1988,125.9844 L336.1988,128.7031 Q335.5738,128.125 334.98,127.8594 Q334.3863,127.5781 333.7613,127.5781 Q332.4175,127.5781 331.73,128.6563 Q331.0425,129.7188 331.0425,131.8125 Q331.0425,133.9063 331.73,134.9844 Q332.4175,136.0469 333.7613,136.0469 Q334.3863,136.0469 334.98,135.7813 Q335.5738,135.5 336.1988,134.9219 L336.1988,137.6406 Z " fill="#000000"/><text fill="#000000" font-family="sans-serif" font-size="14" lengthAdjust="spacing" textLength="99.0801" x="347.23" y="136.8467">Administrador</text><line style="stroke:#181818;stroke-width:0.5;" x1="319.23" x2="448.3101" y1="148" y2="148"/><line style="stroke:#181818;stroke-width:0.5;" x1="319.23" x2="448.3101" y1="156" y2="156"/></g><!--class Cita--><g class="entity" data-entity="Cita" data-source-line="13" data-uid="ent0006" id="entity_Cita"><rect fill="#F1F1F1" height="48" rx="2.5" ry="2.5" style="stroke:#181818;stroke-width:0.5;" width="59.7334" x="159.9" y="366"/><ellipse cx="174.9" cy="382" fill="#ADD1B2" rx="11" ry="11" style="stroke:#181818;stroke-width:1;"/><path d="M177.8688,387.6406 Q177.2906,387.9375 176.65,388.0781 Q176.0094,388.2344 175.3063,388.2344 Q172.8063,388.2344 171.4781,386.5938 Q170.1656,384.9375 170.1656,381.8125 Q170.1656,378.6875 171.4781,377.0313 Q172.8063,375.375 175.3063,375.375 Q176.0094,375.375 176.65,375.5313 Q177.3063,375.6875 177.8688,375.9844 L177.8688,378.7031 Q177.2438,378.125 176.65,377.8594 Q176.0563,377.5781 175.4313,377.5781 Q174.0875,377.5781 173.4,378.6563 Q172.7125,379.7188 172.7125,381.8125 Q172.7125,383.9063 173.4,384.9844 Q174.0875,386.0469 175.4313,386.0469 Q176.0563,386.0469 176.65,385.7813 Q177.2438,385.5 177.8688,384.9219 L177.8688,387.6406 Z " fill="#000000"/><text fill="#000000" font-family="sans-serif" font-size="14" lengthAdjust="spacing" textLength="27.7334" x="188.9" y="386.8467">Cita</text><line style="stroke:#181818;stroke-width:0.5;" x1="160.9" x2="218.6334" y1="398" y2="398"/><line style="stroke:#181818;stroke-width:0.5;" x1="160.9" x2="218.6334" y1="406" y2="406"/></g><!--class Oficina--><g class="entity" data-entity="Oficina" data-source-line="16" data-uid="ent0007" id="entity_Oficina"><rect fill="#F1F1F1" height="48" rx="2.5" ry="2.5" style="stroke:#181818;stroke-width:0.5;" width="80.877" x="39.33" y="241"/><ellipse cx="54.33" cy="257" fill="#ADD1B2" rx="11" ry="11" style="stroke:#181818;stroke-width:1;"/><path d="M57.2988,262.6406 Q56.7206,262.9375 56.08,263.0781 Q55.4394,263.2344 54.7363,263.2344 Q52.2363,263.2344 50.9081,261.5938 Q49.5956,259.9375 49.5956,256.8125 Q49.5956,253.6875 50.9081,252.0313 Q52.2363,250.375 54.7363,250.375 Q55.4394,250.375 56.08,250.5313 Q56.7363,250.6875 57.2988,250.9844 L57.2988,253.7031 Q56.6738,253.125 56.08,252.8594 Q55.4863,252.5781 54.8613,252.5781 Q53.5175,252.5781 52.83,253.6563 Q52.1425,254.7188 52.1425,256.8125 Q52.1425,258.9063 52.83,259.9844 Q53.5175,261.0469 54.8613,261.0469 Q55.4863,261.0469 56.08,260.7813 Q56.6738,260.5 57.2988,259.9219 L57.2988,262.6406 Z " fill="#000000"/><text fill="#000000" font-family="sans-serif" font-size="14" lengthAdjust="spacing" textLength="48.877" x="68.33" y="261.8467">Oficina</text><line style="stroke:#181818;stroke-width:0.5;" x1="40.33" x2="119.207" y1="273" y2="273"/><line style="stroke:#181818;stroke-width:0.5;" x1="40.33" x2="119.207" y1="281" y2="281"/></g><!--class Notificaci?n--><g class="entity" data-entity="Notificaci.n" data-source-line="19" data-uid="ent0008" id="entity_Notificaci.n"><rect fill="#F1F1F1" height="48" rx="2.5" ry="2.5" style="stroke:#181818;stroke-width:0.5;" width="114.5371" x="132.5" y="491"/><ellipse cx="147.5" cy="507" fill="#ADD1B2" rx="11" ry="11" style="stroke:#181818;stroke-width:1;"/><path d="M150.4688,512.6406 Q149.8906,512.9375 149.25,513.0781 Q148.6094,513.2344 147.9063,513.2344 Q145.4063,513.2344 144.0781,511.5938 Q142.7656,509.9375 142.7656,506.8125 Q142.7656,503.6875 144.0781,502.0313 Q145.4063,500.375 147.9063,500.375 Q148.6094,500.375 149.25,500.5313 Q149.9063,500.6875 150.4688,500.9844 L150.4688,503.7031 Q149.8438,503.125 149.25,502.8594 Q148.6563,502.5781 148.0313,502.5781 Q146.6875,502.5781 146,503.6563 Q145.3125,504.7188 145.3125,506.8125 Q145.3125,508.9063 146,509.9844 Q146.6875,511.0469 148.0313,511.0469 Q148.6563,511.0469 149.25,510.7813 Q149.8438,510.5 150.4688,509.9219 L150.4688,512.6406 Z " fill="#000000"/><text fill="#000000" font-family="sans-serif" font-size="14" lengthAdjust="spacing" textLength="82.5371" x="161.5" y="511.8467">Notificaci&#243;n</text><line style="stroke:#181818;stroke-width:0.5;" x1="133.5" x2="246.0371" y1="523" y2="523"/><line style="stroke:#181818;stroke-width:0.5;" x1="133.5" x2="246.0371" y1="531" y2="531"/></g><!--link Usuario to Ciudadano--><g class="link" data-entity-1="Usuario" data-entity-2="Ciudadano" data-source-line="22" data-uid="lnk9" id="link_Usuario_Ciudadano"><path codeLine="22" d="M270.71,55.49 C277.52,81.99 289.23,126.3 300.77,164 C308.87,190.48 319.25,220.51 326.39,240.69" fill="none" id="Usuario-Ciudadano" style="stroke:#181818;stroke-width:1;"/></g><!--link Usuario to Funcionario--><g class="link" data-entity-1="Usuario" data-entity-2="Funcionario" data-source-line="23" data-uid="lnk10" id="link_Usuario_Funcionario"><path codeLine="23" d="M232.51,55.48 C208,73.32 174.45,97.75 149.96,115.57" fill="none" id="Usuario-Funcionario" style="stroke:#181818;stroke-width:1;"/></g><!--link Usuario to Administrador--><g class="link" data-entity-1="Usuario" data-entity-2="Administrador" data-source-line="24" data-uid="lnk11" id="link_Usuario_Administrador"><path codeLine="24" d="M290.89,55.48 C310.73,73.32 337.89,97.75 357.72,115.57" fill="none" id="Usuario-Administrador" style="stroke:#181818;stroke-width:1;"/></g><!--link Ciudadano to Cita--><g class="link" data-entity-1="Ciudadano" data-entity-2="Cita" data-source-line="26" data-uid="lnk12" id="link_Ciudadano_Cita"><path codeLine="26" d="M297.1,289.28 C283.91,298.03 269.27,308.43 256.77,319 C239.82,333.34 222.53,351.5 209.77,365.73" fill="none" id="Ciudadano-Cita" style="stroke:#181818;stroke-width:1;"/><text fill="#000000" font-family="sans-serif" font-size="13" lengthAdjust="spacing" textLength="45.7729" x="257.77" y="332.0669">solicita</text></g><!--link Funcionario to Cita--><g class="link" data-entity-1="Funcionario" data-entity-2="Cita" data-source-line="27" data-uid="lnk13" id="link_Funcionario_Cita"><path codeLine="27" d="M145.96,164.32 C154.35,172.78 162.66,182.98 167.77,194 C194.29,251.18 193.97,327.55 191.75,365.52" fill="none" id="Funcionario-Cita" style="stroke:#181818;stroke-width:1;"/><text fill="#000000" font-family="sans-serif" font-size="13" lengthAdjust="spacing" textLength="55.8911" x="190.77" y="269.5669">gestiona</text></g><!--link Oficina to Cita--><g class="link" data-entity-1="Oficina" data-entity-2="Cita" data-source-line="29" data-uid="lnk14" id="link_Oficina_Cita"><path codeLine="29" d="M78.38,289.38 C78.66,304.01 81.23,322.56 90.77,336 C107.25,359.21 137.14,373.18 159.77,380.91" fill="none" id="Oficina-Cita" style="stroke:#181818;stroke-width:1;"/><text fill="#000000" font-family="sans-serif" font-size="13" lengthAdjust="spacing" textLength="71.1255" x="91.77" y="332.0669">asignada a</text></g><!--link Funcionario to Oficina--><g class="link" data-entity-1="Funcionario" data-entity-2="Oficina" data-source-line="30" data-uid="lnk16" id="link_Funcionario_Oficina"><path codeLine="30" d="M107.05,164.43 C103.14,173.53 98.92,184.13 95.77,194 C90.88,209.32 86.86,226.97 84.07,240.72" fill="none" id="Funcionario-Oficina" style="stroke:#181818;stroke-width:1;"/><text fill="#000000" font-family="sans-serif" font-size="13" lengthAdjust="spacing" textLength="66.5742" x="96.77" y="207.0669">trabaja en</text></g><!--link Cita to Notificaci?n--><g class="link" data-entity-1="Cita" data-entity-2="Notificaci.n" data-source-line="32" data-uid="lnk17" id="link_Cita_Notificaci.n"><path codeLine="32" d="M189.77,414.42 C189.77,436.31 189.77,468.8 189.77,490.66" fill="none" id="Cita-Notificaci&#243;n" style="stroke:#181818;stroke-width:1;"/><text fill="#000000" font-family="sans-serif" font-size="13" lengthAdjust="spacing" textLength="45.7983" x="190.77" y="457.0669">genera</text></g><!--link Ciudadano to Notificaci?n--><g class="link" data-entity-1="Ciudadano" data-entity-2="Notificaci.n" data-source-line="34" data-uid="lnk19" id="link_Ciudadano_Notificaci.n"><path codeLine="34" d="M327.5,289.25 C314.79,327.54 285.93,405.18 244.77,461 C236.98,471.57 226.99,481.89 217.67,490.57" fill="none" id="Ciudadano-Notificaci&#243;n" style="stroke:#181818;stroke-width:1;"/><text fill="#000000" font-family="sans-serif" font-size="13" lengthAdjust="spacing" textLength="48.2041" x="297.77" y="394.5669">notifica</text></g><!--link Funcionario to Notificaci?n--><g class="link" data-entity-1="Funcionario" data-entity-2="Notificaci.n" data-source-line="35" data-uid="lnk21" id="link_Funcionario_Notificaci.n"><path codeLine="35" d="M84.73,164.35 C62.27,182.38 34.44,209.52 21.77,241 C6,280.21 8.74,297.32 25.77,336 C54.98,402.34 119.29,460.1 158.13,490.72" fill="none" id="Funcionario-Notificaci&#243;n" style="stroke:#181818;stroke-width:1;"/><text fill="#000000" font-family="sans-serif" font-size="13" lengthAdjust="spacing" textLength="48.2041" x="26.77" y="332.0669">notifica</text></g><!--SRC=[ROyn3W8X44NxEGMXtmlO6HDBhJp02Ejcp3ea35J6Kta4BoQWku2nvF_Fd_VDZ2Bg914zENM71u0fqewYHOlSYVl8XXp_PhVsHamIF5hd-vA0xVju8KFSIGSNAAbewFNaZx7G34EbQCM6efKx2e0weFGaa8tIukP44513EsMmDJ6D4hAk0HRQvZyAJPnQLV9NEtP8EPOOpdX5DRBE8A5qz4lBAHvzFjGxkQ_2fnn_RVqd-7DuZRu1]--></g></svg>