<svg xmlns="http://www.w3.org/2000/svg" xmlns:xlink="http://www.w3.org/1999/xlink" contentStyleType="text/css" data-diagram-type="STATE" height="983px" preserveAspectRatio="none" style="width:625px;height:983px;background:#FFFFFF;" version="1.1" viewBox="0 0 625 983" width="625px" zoomAndPan="magnify"><defs><filter height="300%" id="ffsuf7ofvm47w" width="300%" x="-1" y="-1"><feGaussianBlur result="blurOut" stdDeviation="2"/><feColorMatrix in="blurOut" result="blurOut2" type="matrix" values="0 0 0 0 0 0 0 0 0 0 0 0 0 0 0 0 0 0 .4 0"/><feOffset dx="4" dy="4" in="blurOut2" result="blurOut3"/><feBlend in="SourceGraphic" in2="blurOut3" mode="normal"/></filter></defs><g><g id="PANEL_ADMIN"><rect fill="#FEFECE" filter="url(#ffsuf7ofvm47w)" height="50" rx="12.5" ry="12.5" style="stroke:#A80036;stroke-width:1;" width="119.1758" x="203.42" y="7"/><line style="stroke:#A80036;stroke-width:1;" x1="203.42" x2="322.5958" y1="33.2969" y2="33.2969"/><text fill="#000000" font-family="sans-serif" font-size="14" lengthAdjust="spacing" textLength="99.1758" x="213.42" y="24.9951">PANEL_ADMIN</text></g><rect fill="none" filter="url(#ffsuf7ofvm47w)" height="702.2969" rx="12.5" ry="12.5" style="stroke:#A80036;stroke-width:1;" width="512.02" x="7" y="156"/><path d="M19.5,156 L506.52,156 A12.5,12.5 0 0 1 519.02,168.5 L519.02,182.2969 L7,182.2969 L7,168.5 A12.5,12.5 0 0 1 19.5,156" fill="#FEFECE"/><path d="M7,182.2969 L519.02,182.2969 L519.02,845.7969 A12.5,12.5 0 0 1 506.52,858.2969 L19.5,858.2969 A12.5,12.5 0 0 1 7,845.7969 L7,182.2969" fill="#FEFECE"/><rect fill="none" height="702.2969" rx="12.5" ry="12.5" style="stroke:#A80036;stroke-width:1;" width="512.02" x="7" y="156"/><line style="stroke:#A80036;stroke-width:1;" x1="7" x2="519.02" y1="182.2969" y2="182.2969"/><text fill="#000000" font-family="sans-serif" font-size="14" lengthAdjust="spacing" textLength="168.376" x="178.822" y="173.9951">GESTION_FUNCIONARIO</text><g id="GESTION_FUNCIONARIO.registrarFuncionario"><rect fill="#FEFECE" filter="url(#ffsuf7ofvm47w)" height="50" rx="12.5" ry="12.5" style="stroke:#A80036;stroke-width:1;" width="166.9316" x="20.55" y="288.2969"/><line style="stroke:#A80036;stroke-width:1;" x1="20.55" x2="187.4816" y1="314.5938" y2="314.5938"/><text fill="#000000" font-family="sans-serif" font-size="14" lengthAdjust="spacing" textLength="146.9316" x="30.55" y="306.292">Registrar funcionario</text></g><g id="GESTION_FUNCIONARIO.editarFuncionario"><rect fill="#FEFECE" filter="url(#ffsuf7ofvm47w)" height="50" rx="12.5" ry="12.5" style="stroke:#A80036;stroke-width:1;" width="144.3867" x="31.82" y="443.2969"/><line style="stroke:#A80036;stroke-width:1;" x1="31.82" x2="176.2067" y1="469.5938" y2="469.5938"/><text fill="#000000" font-family="sans-serif" font-size="14" lengthAdjust="spacing" textLength="124.3867" x="41.82" y="461.292">Editar funcionario</text></g><g id="GESTION_FUNCIONARIO.eliminarFuncionario"><rect fill="#FEFECE" filter="url(#ffsuf7ofvm47w)" height="50" rx="12.5" ry="12.5" style="stroke:#A80036;stroke-width:1;" width="160.3008" x="23.87" y="568.2969"/><line style="stroke:#A80036;stroke-width:1;" x1="23.87" x2="184.1708" y1="594.5938" y2="594.5938"/><text fill="#000000" font-family="sans-serif" font-size="14" lengthAdjust="spacing" textLength="140.3008" x="33.87" y="586.292">Eliminar funcionario</text></g><g id="GESTION_FUNCIONARIO.consultarFuncionario"><rect fill="#FEFECE" filter="url(#ffsuf7ofvm47w)" height="50" rx="12.5" ry="12.5" style="stroke:#A80036;stroke-width:1;" width="170.0352" x="19" y="693.2969"/><line style="stroke:#A80036;stroke-width:1;" x1="19" x2="189.0352" y1="719.5938" y2="719.5938"/><text fill="#000000" font-family="sans-serif" font-size="14" lengthAdjust="spacing" textLength="150.0352" x="29" y="711.292">Consultar funcionario</text></g><ellipse cx="104.02" cy="203.2969" fill="#000000" filter="url(#ffsuf7ofvm47w)" rx="10" ry="10" style="stroke:#000000;stroke-width:1;"/><ellipse cx="104.02" cy="829.2969" fill="none" filter="url(#ffsuf7ofvm47w)" rx="11" ry="11" style="stroke:#000000;stroke-width:1;"/><ellipse cx="104.02" cy="829.2969" fill="#000000" rx="6" ry="6" style="stroke:#000000;stroke-width:1;"/><!--link *start*GESTION_FUNCIONARIO to registrarFuncionario--><g class="link" data-entity-1=".start.GESTION_FUNCIONARIO" data-entity-2="registrarFuncionario" data-source-line="14" data-uid="lnk5" id="link_.start.GESTION_FUNCIONARIO_registrarFuncionario"><path d="M104.02,213.5069 C104.02,229.8269 104.02,258.3369 104.02,281.9269" fill="none" id="*start*GESTION_FUNCIONARIO-to-registrarFuncionario" style="stroke:#FF0000;stroke-width:1;"/><polygon fill="#FF0000" points="104.02,287.9269,108.02,278.9269,104.02,282.9269,100.02,278.9269,104.02,287.9269" style="stroke:#FF0000;stroke-width:1;"/><path d="M109.02,236.2969 L109.02,261.2969 L510.02,261.2969 L510.02,246.2969 L500.02,236.2969 L109.02,236.2969" fill="#FBFB77" filter="url(#ffsuf7ofvm47w)" style="stroke:#A80036;stroke-width:1;"/><path d="M500.02,236.2969 L500.02,246.2969 L510.02,246.2969 L500.02,236.2969" fill="#FBFB77" style="stroke:#A80036;stroke-width:1;"/><text fill="#000000" font-family="sans-serif" font-size="13" font-weight="bold" lengthAdjust="spacing" textLength="178.6929" x="115.02" y="253.3638">El administrador solicita</text><text fill="#000000" font-family="sans-serif" font-size="13" lengthAdjust="spacing" textLength="197.6152" x="297.8452" y="253.3638">registrar un nuevo funcionario</text></g><!--link registrarFuncionario to editarFuncionario--><g class="link" data-entity-1="registrarFuncionario" data-entity-2="editarFuncionario" data-source-line="18" data-uid="lnk6" id="link_registrarFuncionario_editarFuncionario"><path d="M104.02,338.5369 C104.02,367.1069 104.02,408.2869 104.02,436.9169" fill="none" id="registrarFuncionario-to-editarFuncionario" style="stroke:#0000FF;stroke-width:1;"/><polygon fill="#0000FF" points="104.02,442.9169,108.02,433.9169,104.02,437.9169,100.02,433.9169,104.02,442.9169" style="stroke:#0000FF;stroke-width:1;"/><path d="M109.02,361.2969 L109.02,416.2969 L302.02,416.2969 L302.02,371.2969 L292.02,361.2969 L109.02,361.2969" fill="#FBFB77" filter="url(#ffsuf7ofvm47w)" style="stroke:#A80036;stroke-width:1;"/><path d="M292.02,361.2969 L292.02,371.2969 L302.02,371.2969 L292.02,361.2969" fill="#FBFB77" style="stroke:#A80036;stroke-width:1;"/><text fill="#000000" font-family="sans-serif" font-size="13" font-weight="bold" lengthAdjust="spacing" textLength="140.4229" x="115.02" y="378.3638">El sistema muestra</text><text fill="#000000" font-family="sans-serif" font-size="13" lengthAdjust="spacing" textLength="4.3799" x="255.4429" y="378.3638">:</text><text fill="#000000" font-family="sans-serif" font-size="13" lengthAdjust="spacing" textLength="155.689" x="123.2846" y="393.4966">&#176; Formulario de registro</text><text fill="#000000" font-family="sans-serif" font-size="13" lengthAdjust="spacing" textLength="146.1738" x="123.2846" y="408.6294">&#176; Confirmaci&#243;n de alta</text></g><!--link editarFuncionario to eliminarFuncionario--><g class="link" data-entity-1="editarFuncionario" data-entity-2="eliminarFuncionario" data-source-line="26" data-uid="lnk7" id="link_editarFuncionario_eliminarFuncionario"><path d="M104.02,493.5969 C104.02,515.1569 104.02,540.4969 104.02,562.0469" fill="none" id="editarFuncionario-to-eliminarFuncionario" style="stroke:#0000FF;stroke-width:1;"/><polygon fill="#0000FF" points="104.02,568.0469,108.02,559.0469,104.02,563.0469,100.02,559.0469,104.02,568.0469" style="stroke:#0000FF;stroke-width:1;"/><path d="M109.02,516.2969 L109.02,541.2969 L488.02,541.2969 L488.02,526.2969 L478.02,516.2969 L109.02,516.2969" fill="#FBFB77" filter="url(#ffsuf7ofvm47w)" style="stroke:#A80036;stroke-width:1;"/><path d="M478.02,516.2969 L478.02,526.2969 L488.02,526.2969 L478.02,516.2969" fill="#FBFB77" style="stroke:#A80036;stroke-width:1;"/><text fill="#000000" font-family="sans-serif" font-size="13" font-weight="bold" lengthAdjust="spacing" textLength="178.6929" x="115.02" y="533.3638">El administrador solicita</text><text fill="#000000" font-family="sans-serif" font-size="13" lengthAdjust="spacing" textLength="175.8428" x="297.8452" y="533.3638">editar datos de funcionario</text></g><!--link eliminarFuncionario to consultarFuncionario--><g class="link" data-entity-1="eliminarFuncionario" data-entity-2="consultarFuncionario" data-source-line="30" data-uid="lnk8" id="link_eliminarFuncionario_consultarFuncionario"><path d="M104.02,618.5969 C104.02,640.1569 104.02,665.4969 104.02,687.0469" fill="none" id="eliminarFuncionario-to-consultarFuncionario" style="stroke:#0000FF;stroke-width:1;"/><polygon fill="#0000FF" points="104.02,693.0469,108.02,684.0469,104.02,688.0469,100.02,684.0469,104.02,693.0469" style="stroke:#0000FF;stroke-width:1;"/><path d="M109.02,641.2969 L109.02,666.2969 L463.02,666.2969 L463.02,651.2969 L453.02,641.2969 L109.02,641.2969" fill="#FBFB77" filter="url(#ffsuf7ofvm47w)" style="stroke:#A80036;stroke-width:1;"/><path d="M453.02,641.2969 L453.02,651.2969 L463.02,651.2969 L453.02,641.2969" fill="#FBFB77" style="stroke:#A80036;stroke-width:1;"/><text fill="#000000" font-family="sans-serif" font-size="13" font-weight="bold" lengthAdjust="spacing" textLength="178.6929" x="115.02" y="658.3638">El administrador solicita</text><text fill="#000000" font-family="sans-serif" font-size="13" lengthAdjust="spacing" textLength="150.6743" x="297.8452" y="658.3638">eliminar un funcionario</text></g><!--link consultarFuncionario to *end*GESTION_FUNCIONARIO--><g class="link" data-entity-1="consultarFuncionario" data-entity-2=".end.GESTION_FUNCIONARIO" data-source-line="34" data-uid="lnk10" id="link_consultarFuncionario_.end.GESTION_FUNCIONARIO"><path d="M104.02,743.7569 C104.02,767.1069 104.02,795.1569 104.02,812.0269" fill="none" id="consultarFuncionario-to-*end*GESTION_FUNCIONARIO" style="stroke:#0000FF;stroke-width:1;"/><polygon fill="#0000FF" points="104.02,818.0269,108.02,809.0269,104.02,813.0269,100.02,809.0269,104.02,818.0269" style="stroke:#0000FF;stroke-width:1;"/><path d="M109.02,766.2969 L109.02,791.2969 L500.02,791.2969 L500.02,776.2969 L490.02,766.2969 L109.02,766.2969" fill="#FBFB77" filter="url(#ffsuf7ofvm47w)" style="stroke:#A80036;stroke-width:1;"/><path d="M490.02,766.2969 L490.02,776.2969 L500.02,776.2969 L490.02,766.2969" fill="#FBFB77" style="stroke:#A80036;stroke-width:1;"/><text fill="#000000" font-family="sans-serif" font-size="13" font-weight="bold" lengthAdjust="spacing" textLength="188.2905" x="115.02" y="783.3638">El administrador consulta</text><text fill="#000000" font-family="sans-serif" font-size="13" lengthAdjust="spacing" textLength="178.3184" x="307.4429" y="783.3638">informaci&#243;n del funcionario</text></g><g id="FUNCIONARIO_DETALLE"><rect fill="#FEFECE" filter="url(#ffsuf7ofvm47w)" height="50" rx="12.5" ry="12.5" style="stroke:#A80036;stroke-width:1;" width="188.376" x="168.82" y="919.3"/><line style="stroke:#A80036;stroke-width:1;" x1="168.82" x2="357.196" y1="945.5969" y2="945.5969"/><text fill="#000000" font-family="sans-serif" font-size="14" lengthAdjust="spacing" textLength="168.376" x="178.82" y="937.2951">GESTION_FUNCIONARIO</text></g><!--link PANEL_ADMIN to GESTION_FUNCIONARIO--><g class="link" data-entity-1="PANEL_ADMIN" data-entity-2="GESTION_FUNCIONARIO" data-source-line="8" data-uid="lnk2" id="link_PANEL_ADMIN_GESTION_FUNCIONARIO"><path d="M263.01,57.45 C263.01,79.44 263.01,108.58 263.01,149.77" fill="none" id="PANEL_ADMIN-to-GESTION_FUNCIONARIO" style="stroke:#A80036;stroke-width:1;"/><polygon fill="#A80036" points="263.01,155.77,267.01,146.77,263.01,150.77,259.01,146.77,263.01,155.77" style="stroke:#A80036;stroke-width:1;"/><path d="M268.01,92 L268.01,117 L616.01,117 L616.01,102 L606.01,92 L268.01,92" fill="#FBFB77" filter="url(#ffsuf7ofvm47w)" style="stroke:#A80036;stroke-width:1;"/><path d="M606.01,92 L606.01,102 L616.01,102 L606.01,92" fill="#FBFB77" style="stroke:#A80036;stroke-width:1;"/><text fill="#000000" font-family="sans-serif" font-size="13" font-weight="bold" lengthAdjust="spacing" textLength="178.6929" x="274.01" y="109.0669">El administrador solicita</text><text fill="#000000" font-family="sans-serif" font-size="13" lengthAdjust="spacing" textLength="145.0249" x="456.8352" y="109.0669">gestionar funcionarios</text></g><!--link GESTION_FUNCIONARIO to FUNCIONARIO_DETALLE--><g class="link" data-entity-1="GESTION_FUNCIONARIO" data-entity-2="FUNCIONARIO_DETALLE" data-source-line="11" data-uid="lnk3" id="link_GESTION_FUNCIONARIO_FUNCIONARIO_DETALLE"><path d="M263.01,858.62 C263.01,883.18 263.01,898.08 263.01,912.97" fill="none" id="GESTION_FUNCIONARIO-to-FUNCIONARIO_DETALLE" style="stroke:#A80036;stroke-width:1;"/><polygon fill="#A80036" points="263.01,918.97,267.01,909.97,263.01,913.97,259.01,909.97,263.01,918.97" style="stroke:#A80036;stroke-width:1;"/></g><!--SRC=[fPFDQW8n58NtUOgBtGLy0HU5GMCHx5YiNOb8EeaIp2IGdsvAtwdGDsXVh9bqHYCJIukhIUu9vtpt9cCFGe7HbYE4hAEEmqDHalcscDpFohPoHnvNiqMvdJwLu_0jbhD5gmmoqW2eXMI_dP1LCPyJX19d60vlixvA1rkjG0fr6076H09bjL32EaEPDc2r59Lm56FOS-k4LjJ0pgigheIs26LyOruMwcABy8e0rdW3m_MDuMmJ30pVHmupFUM5G_zXFbg0Lw0yVz4fF0fkxMINnuE97cTxWI9NRjYVfUSDF6U1u1Voi8teDhZmcaBjUME7yGWWQ02Vxp3LflOoEZFU9UgJFjPg9qnDA_7rePeZL3eQHAvOp4hw8n6drroEibSxQqkACEfhhkJ77XXrsZRC-ViWRKwVE0kGgQRKbLRMItSLTWSK7b8UUTo5z9WlnEVAANNu6_u2sTa4IA5sEdaFyepqxHi0]--></g></svg>
