<svg xmlns="http://www.w3.org/2000/svg" xmlns:xlink="http://www.w3.org/1999/xlink" contentStyleType="text/css" data-diagram-type="STATE" height="882px" preserveAspectRatio="none" style="width:760px;height:882px;background:#FFFFFF;" version="1.1" viewBox="0 0 760 882" width="760px" zoomAndPan="magnify"><defs><filter height="300%" id="fkmzh5mieqicf" width="300%" x="-1" y="-1"><feGaussianBlur result="blurOut" stdDeviation="2"/><feColorMatrix in="blurOut" result="blurOut2" type="matrix" values="0 0 0 0 0 0 0 0 0 0 0 0 0 0 0 0 0 0 .4 0"/><feOffset dx="4" dy="4" in="blurOut2" result="blurOut3"/><feBlend in="SourceGraphic" in2="blurOut3" mode="normal"/></filter></defs><g><g id="PANEL_FUNCIONARIO"><rect fill="#FEFECE" filter="url(#fkmzh5mieqicf)" height="50" rx="12.5" ry="12.5" style="stroke:#A80036;stroke-width:1;" width="170.7598" x="279.79" y="7"/><line style="stroke:#A80036;stroke-width:1;" x1="279.79" x2="450.5498" y1="33.2969" y2="33.2969"/><text fill="#000000" font-family="sans-serif" font-size="14" lengthAdjust="spacing" textLength="150.7598" x="289.79" y="24.9951">PANEL_FUNCIONARIO</text></g><g id="LISTA_CITAS"><rect fill="#FEFECE" filter="url(#fkmzh5mieqicf)" height="50" rx="12.5" ry="12.5" style="stroke:#A80036;stroke-width:1;" width="106.8643" x="311.73" y="156"/><line style="stroke:#A80036;stroke-width:1;" x1="311.73" x2="418.5943" y1="182.2969" y2="182.2969"/><text fill="#000000" font-family="sans-serif" font-size="14" lengthAdjust="spacing" textLength="86.8643" x="321.73" y="173.9951">LISTA_CITAS</text></g><rect fill="none" filter="url(#fkmzh5mieqicf)" height="452.2969" rx="12.5" ry="12.5" style="stroke:#A80036;stroke-width:1;" width="716.33" x="7" y="305"/><path d="M19.5,305 L710.83,305 A12.5,12.5 0 0 1 723.33,317.5 L723.33,331.2969 L7,331.2969 L7,317.5 A12.5,12.5 0 0 1 19.5,305" fill="#FEFECE"/><path d="M7,331.2969 L723.33,331.2969 L723.33,744.7969 A12.5,12.5 0 0 1 710.83,757.2969 L19.5,757.2969 A12.5,12.5 0 0 1 7,744.7969 L7,331.2969" fill="#FEFECE"/><rect fill="none" height="452.2969" rx="12.5" ry="12.5" style="stroke:#A80036;stroke-width:1;" width="716.33" x="7" y="305"/><line style="stroke:#A80036;stroke-width:1;" x1="7" x2="723.33" y1="331.2969" y2="331.2969"/><text fill="#000000" font-family="sans-serif" font-size="14" lengthAdjust="spacing" textLength="67.1836" x="331.5732" y="322.9951">VER_CITA</text><g id="VER_CITA.marcarAsistencia"><rect fill="#FEFECE" filter="url(#fkmzh5mieqicf)" height="50" rx="12.5" ry="12.5" style="stroke:#A80036;stroke-width:1;" width="143.0947" x="148.78" y="437.2969"/><line style="stroke:#A80036;stroke-width:1;" x1="148.78" x2="291.8747" y1="463.5938" y2="463.5938"/><text fill="#000000" font-family="sans-serif" font-size="14" lengthAdjust="spacing" textLength="123.0947" x="158.78" y="455.292">Marcar asistencia</text></g><g id="VER_CITA.generarReporte"><rect fill="#FEFECE" filter="url(#fkmzh5mieqicf)" height="50" rx="12.5" ry="12.5" style="stroke:#A80036;stroke-width:1;" width="133.1689" x="153.75" y="592.2969"/><line style="stroke:#A80036;stroke-width:1;" x1="153.75" x2="286.9189" y1="618.5938" y2="618.5938"/><text fill="#000000" font-family="sans-serif" font-size="14" lengthAdjust="spacing" textLength="113.1689" x="163.75" y="610.292">Generar reporte</text></g><ellipse cx="220.33" cy="352.2969" fill="#000000" filter="url(#fkmzh5mieqicf)" rx="10" ry="10" style="stroke:#000000;stroke-width:1;"/><ellipse cx="220.33" cy="728.2969" fill="none" filter="url(#fkmzh5mieqicf)" rx="11" ry="11" style="stroke:#000000;stroke-width:1;"/><ellipse cx="220.33" cy="728.2969" fill="#000000" rx="6" ry="6" style="stroke:#000000;stroke-width:1;"/><!--link *start*VER_CITA to marcarAsistencia--><g class="link" data-entity-1=".start.VER_CITA" data-entity-2="marcarAsistencia" data-source-line="18" data-uid="lnk6" id="link_.start.VER_CITA_marcarAsistencia"><path d="M220.33,362.5069 C220.33,378.8269 220.33,407.3369 220.33,430.9269" fill="none" id="*start*VER_CITA-to-marcarAsistencia" style="stroke:#0000FF;stroke-width:1;"/><polygon fill="#0000FF" points="220.33,436.9269,224.33,427.9269,220.33,431.9269,216.33,427.9269,220.33,436.9269" style="stroke:#0000FF;stroke-width:1;"/><path d="M225.33,385.2969 L225.33,410.2969 L629.33,410.2969 L629.33,395.2969 L619.33,385.2969 L225.33,385.2969" fill="#FBFB77" filter="url(#fkmzh5mieqicf)" style="stroke:#A80036;stroke-width:1;"/><path d="M619.33,385.2969 L619.33,395.2969 L629.33,395.2969 L619.33,385.2969" fill="#FBFB77" style="stroke:#A80036;stroke-width:1;"/><text fill="#000000" font-family="sans-serif" font-size="13" font-weight="bold" lengthAdjust="spacing" textLength="158.2026" x="231.33" y="402.3638">El funcionario solicita</text><text fill="#000000" font-family="sans-serif" font-size="13" lengthAdjust="spacing" textLength="220.8032" x="393.665" y="402.3638">registrar asistencia del ciudadano</text></g><!--link marcarAsistencia to generarReporte--><g class="link" data-entity-1="marcarAsistencia" data-entity-2="generarReporte" data-source-line="22" data-uid="lnk7" id="link_marcarAsistencia_generarReporte"><path d="M220.33,487.5369 C220.33,516.1069 220.33,557.2869 220.33,585.9169" fill="none" id="marcarAsistencia-to-generarReporte" style="stroke:#0000FF;stroke-width:1;"/><polygon fill="#0000FF" points="220.33,591.9169,224.33,582.9169,220.33,586.9169,216.33,582.9169,220.33,591.9169" style="stroke:#0000FF;stroke-width:1;"/><path d="M225.33,510.2969 L225.33,565.2969 L461.33,565.2969 L461.33,520.2969 L451.33,510.2969 L225.33,510.2969" fill="#FBFB77" filter="url(#fkmzh5mieqicf)" style="stroke:#A80036;stroke-width:1;"/><path d="M451.33,510.2969 L451.33,520.2969 L461.33,520.2969 L451.33,510.2969" fill="#FBFB77" style="stroke:#A80036;stroke-width:1;"/><text fill="#000000" font-family="sans-serif" font-size="13" font-weight="bold" lengthAdjust="spacing" textLength="140.4229" x="231.33" y="527.3638">El sistema muestra</text><text fill="#000000" font-family="sans-serif" font-size="13" lengthAdjust="spacing" textLength="4.3799" x="371.7529" y="527.3638">:</text><text fill="#000000" font-family="sans-serif" font-size="13" lengthAdjust="spacing" textLength="199.1895" x="239.5946" y="542.4966">&#176; Cita marcada como atendida</text><text fill="#000000" font-family="sans-serif" font-size="13" lengthAdjust="spacing" textLength="181.4224" x="239.5946" y="557.6294">&#176; Disponibilidad actualizada</text></g><!--link generarReporte to *end*VER_CITA--><g class="link" data-entity-1="generarReporte" data-entity-2=".end.VER_CITA" data-source-line="30" data-uid="lnk9" id="link_generarReporte_.end.VER_CITA"><path d="M153.45,624.1969 C104.8,630.0369 44.86,640.9769 29.33,660.2969 C18.47,673.8069 18,686.1769 29.33,699.2969 C52.89,726.5569 165.6002,727.8266 203.0202,727.5166" fill="none" id="generarReporte-to-*end*VER_CITA" style="stroke:#0000FF;stroke-width:1;"/><polygon fill="#0000FF" points="209.02,727.4669,199.9872,723.5416,204.0202,727.5083,200.0534,731.5413,209.02,727.4669" style="stroke:#0000FF;stroke-width:1;"/><path d="M34.33,665.2969 L34.33,690.2969 L382.33,690.2969 L382.33,675.2969 L372.33,665.2969 L34.33,665.2969" fill="#FBFB77" filter="url(#fkmzh5mieqicf)" style="stroke:#A80036;stroke-width:1;"/><path d="M372.33,665.2969 L372.33,675.2969 L382.33,675.2969 L372.33,665.2969" fill="#FBFB77" style="stroke:#A80036;stroke-width:1;"/><text fill="#000000" font-family="sans-serif" font-size="13" font-weight="bold" lengthAdjust="spacing" textLength="158.2026" x="40.33" y="682.3638">El funcionario solicita</text><text fill="#000000" font-family="sans-serif" font-size="13" lengthAdjust="spacing" textLength="165.2866" x="202.665" y="682.3638">generar informe mensual</text></g><!--link generarReporte to *end*VER_CITA--><g class="link" data-entity-1="generarReporte" data-entity-2=".end.VER_CITA" data-source-line="33" data-uid="lnk10" id="link_generarReporte_.end.VER_CITA"><path d="M287.08,626.1869 C329.29,632.7069 378.27,643.6369 391.33,660.2969 C402.03,673.9369 402.55,686.0869 391.33,699.2969 C370.59,723.7169 271.9797,726.8226 237.4297,727.1926" fill="none" id="generarReporte-to-*end*VER_CITA-1" style="stroke:#FF0000;stroke-width:1;"/><polygon fill="#FF0000" points="231.43,727.2569,240.4723,731.1603,236.4297,727.2033,240.3866,723.1607,231.43,727.2569" style="stroke:#FF0000;stroke-width:1;"/><path d="M404.33,665.2969 L404.33,690.2969 L714.33,690.2969 L714.33,675.2969 L704.33,665.2969 L404.33,665.2969" fill="#FBFB77" filter="url(#fkmzh5mieqicf)" style="stroke:#A80036;stroke-width:1;"/><path d="M704.33,665.2969 L704.33,675.2969 L714.33,675.2969 L704.33,665.2969" fill="#FBFB77" style="stroke:#A80036;stroke-width:1;"/><text fill="#000000" font-family="sans-serif" font-size="13" font-weight="bold" lengthAdjust="spacing" textLength="158.2026" x="410.33" y="682.3638">El funcionario solicita</text><text fill="#000000" font-family="sans-serif" font-size="13" lengthAdjust="spacing" textLength="126.7183" x="572.665" y="682.3638">cancelar el proceso</text></g><g id="CITA_DETALLE"><rect fill="#FEFECE" filter="url(#fkmzh5mieqicf)" height="50" rx="12.5" ry="12.5" style="stroke:#A80036;stroke-width:1;" width="87.1836" x="321.57" y="818.3"/><line style="stroke:#A80036;stroke-width:1;" x1="321.57" x2="408.7536" y1="844.5969" y2="844.5969"/><text fill="#000000" font-family="sans-serif" font-size="14" lengthAdjust="spacing" textLength="67.1836" x="331.57" y="836.2951">VER_CITA</text></g><!--link PANEL_FUNCIONARIO to LISTA_CITAS--><g class="link" data-entity-1="PANEL_FUNCIONARIO" data-entity-2="LISTA_CITAS" data-source-line="9" data-uid="lnk2" id="link_PANEL_FUNCIONARIO_LISTA_CITAS"><path d="M365.17,57.28 C365.17,84.51 365.17,122.44 365.17,149.69" fill="none" id="PANEL_FUNCIONARIO-to-LISTA_CITAS" style="stroke:#A80036;stroke-width:1;"/><polygon fill="#A80036" points="365.17,155.69,369.17,146.69,365.17,150.69,361.17,146.69,365.17,155.69" style="stroke:#A80036;stroke-width:1;"/><path d="M370.17,92 L370.17,117 L751.17,117 L751.17,102 L741.17,92 L370.17,92" fill="#FBFB77" filter="url(#fkmzh5mieqicf)" style="stroke:#A80036;stroke-width:1;"/><path d="M741.17,92 L741.17,102 L751.17,102 L741.17,92" fill="#FBFB77" style="stroke:#A80036;stroke-width:1;"/><text fill="#000000" font-family="sans-serif" font-size="13" font-weight="bold" lengthAdjust="spacing" textLength="158.2026" x="376.17" y="109.0669">El funcionario solicita</text><text fill="#000000" font-family="sans-serif" font-size="13" lengthAdjust="spacing" textLength="198.2056" x="538.505" y="109.0669">ver lista de citas programadas</text></g><!--link LISTA_CITAS to VER_CITA--><g class="link" data-entity-1="LISTA_CITAS" data-entity-2="VER_CITA" data-source-line="12" data-uid="lnk3" id="link_LISTA_CITAS_VER_CITA"><path d="M365.17,206.48 C365.17,229 365.17,258.86 365.17,298.66" fill="none" id="LISTA_CITAS-to-VER_CITA" style="stroke:#A80036;stroke-width:1;"/><polygon fill="#A80036" points="365.17,304.66,369.17,295.66,365.17,299.66,361.17,295.66,365.17,304.66" style="stroke:#A80036;stroke-width:1;"/><path d="M370.17,241 L370.17,266 L699.17,266 L699.17,251 L689.17,241 L370.17,241" fill="#FBFB77" filter="url(#fkmzh5mieqicf)" style="stroke:#A80036;stroke-width:1;"/><path d="M689.17,241 L689.17,251 L699.17,251 L689.17,241" fill="#FBFB77" style="stroke:#A80036;stroke-width:1;"/><text fill="#000000" font-family="sans-serif" font-size="13" font-weight="bold" lengthAdjust="spacing" textLength="158.2026" x="376.17" y="258.0669">El funcionario solicita</text><text fill="#000000" font-family="sans-serif" font-size="13" lengthAdjust="spacing" textLength="146.6182" x="538.505" y="258.0669">ver detalle de una cita</text></g><!--link VER_CITA to CITA_DETALLE--><g class="link" data-entity-1="VER_CITA" data-entity-2="CITA_DETALLE" data-source-line="15" data-uid="lnk4" id="link_VER_CITA_CITA_DETALLE"><path d="M365.17,757.55 C365.17,781.6 365.17,796.79 365.17,811.96" fill="none" id="VER_CITA-to-CITA_DETALLE" style="stroke:#A80036;stroke-width:1;"/><polygon fill="#A80036" points="365.17,817.96,369.17,808.96,365.17,812.96,361.17,808.96,365.17,817.96" style="stroke:#A80036;stroke-width:1;"/></g><!--SRC=[dP91Ri8m44NtFiM8xY9n0HQL8aYhI2bKGBj120tnW2mS6zb95wrwfvwX9-l419G02-YEcNp__sO6lrC6dFKaXF0bbWIlyJZ9Lazlus4w6SVJTDBqitGsZrV3T1xFcivxCWrrK_QETG_GG_rZDKhcSPObGboOGh__sB4qbYsi0QtCRW1Hb6ZOL2PNrg1J5hpLAbSbHX5ya6CLPu8ag7iUzivk7HOeqGlHSWqf9ypx8YILg3NL8PN142J4qIiOTqVixWI-1C0YMa9_yR3M5IrPNw3BqSMUsObZaHMt8pdQyZk7ZfTxD60spM2LvC6D5UpNNE8b9BMKuIHNyizRRTmj6UAyAUsjA-aCbij06ruM24L5DLqK3G3u6y3l3moP_90WUN-siC1mHYgkJfgHydjhr5ffRal0lAnGgqz-mGeMXz3MPCy7A5v7e0fpNO1s6-sP-29tRRrn0cKsrXK41HdFWE9gY2FvdumSJKwQG_YO_4VEoLln_GS0]--></g></svg>
