<svg xmlns="http://www.w3.org/2000/svg" xmlns:xlink="http://www.w3.org/1999/xlink" contentStyleType="text/css" data-diagram-type="STATE" height="449px" preserveAspectRatio="none" style="width:1307px;height:449px;background:#FFFFFF;" version="1.1" viewBox="0 0 1307 449" width="1307px" zoomAndPan="magnify"><defs><filter height="300%" id="frlw27r954qgo" width="300%" x="-1" y="-1"><feGaussianBlur result="blurOut" stdDeviation="2"/><feColorMatrix in="blurOut" result="blurOut2" type="matrix" values="0 0 0 0 0 0 0 0 0 0 0 0 0 0 0 0 0 0 .4 0"/><feOffset dx="4" dy="4" in="blurOut2" result="blurOut3"/><feBlend in="SourceGraphic" in2="blurOut3" mode="normal"/></filter></defs><g><ellipse cx="388.02" cy="16" fill="#000000" filter="url(#frlw27r954qgo)" rx="10" ry="10" style="stroke:#000000;stroke-width:1;"/><g id="INICIAL"><rect fill="#FEFECE" filter="url(#frlw27r954qgo)" height="50" rx="12.5" ry="12.5" style="stroke:#A80036;stroke-width:1;" width="70.0117" x="353.02" y="87"/><line style="stroke:#A80036;stroke-width:1;" x1="353.02" x2="423.0317" y1="113.2969" y2="113.2969"/><text fill="#000000" font-family="sans-serif" font-size="14" lengthAdjust="spacing" textLength="50.0117" x="363.02" y="104.9951">INICIAL</text></g><g id="DASHBOARD_FUNCIONARIO"><rect fill="#FEFECE" filter="url(#frlw27r954qgo)" height="50" rx="12.5" ry="12.5" style="stroke:#A80036;stroke-width:1;" width="216.1025" x="279.97" y="236"/><line style="stroke:#A80036;stroke-width:1;" x1="279.97" x2="496.0725" y1="262.2969" y2="262.2969"/><text fill="#000000" font-family="sans-serif" font-size="14" lengthAdjust="spacing" textLength="196.1025" x="289.97" y="253.9951">DASHBOARD_FUNCIONARIO</text></g><g id="REVISAR_CITAS"><rect fill="#FEFECE" filter="url(#frlw27r954qgo)" height="50" rx="12.5" ry="12.5" style="stroke:#A80036;stroke-width:1;" width="128.3906" x="876.83" y="236"/><line style="stroke:#A80036;stroke-width:1;" x1="876.83" x2="1005.2206" y1="262.2969" y2="262.2969"/><text fill="#000000" font-family="sans-serif" font-size="14" lengthAdjust="spacing" textLength="108.3906" x="886.83" y="253.9951">REVISAR_CITAS</text></g><g id="APROBAR_CITA"><rect fill="#FEFECE" filter="url(#frlw27r954qgo)" height="50" rx="12.5" ry="12.5" style="stroke:#A80036;stroke-width:1;" width="126.709" x="780.67" y="385"/><line style="stroke:#A80036;stroke-width:1;" x1="780.67" x2="907.379" y1="411.2969" y2="411.2969"/><text fill="#000000" font-family="sans-serif" font-size="14" lengthAdjust="spacing" textLength="106.709" x="790.67" y="402.9951">APROBAR_CITA</text></g><g id="RECHAZAR_CITA"><rect fill="#FEFECE" filter="url(#frlw27r954qgo)" height="50" rx="12.5" ry="12.5" style="stroke:#A80036;stroke-width:1;" width="136.3818" x="1156.83" y="236"/><line style="stroke:#A80036;stroke-width:1;" x1="1156.83" x2="1293.2118" y1="262.2969" y2="262.2969"/><text fill="#000000" font-family="sans-serif" font-size="14" lengthAdjust="spacing" textLength="116.3818" x="1166.83" y="253.9951">RECHAZAR_CITA</text></g><g id="REPROGRAMAR_CITA"><rect fill="#FEFECE" filter="url(#frlw27r954qgo)" height="50" rx="12.5" ry="12.5" style="stroke:#A80036;stroke-width:1;" width="168.333" x="530.86" y="236"/><line style="stroke:#A80036;stroke-width:1;" x1="530.86" x2="699.193" y1="262.2969" y2="262.2969"/><text fill="#000000" font-family="sans-serif" font-size="14" lengthAdjust="spacing" textLength="148.333" x="540.86" y="253.9951">REPROGRAMAR_CITA</text></g><g id="REGISTRAR_ASISTENCIA"><rect fill="#FEFECE" filter="url(#frlw27r954qgo)" height="50" rx="12.5" ry="12.5" style="stroke:#A80036;stroke-width:1;" width="189.8525" x="956.1" y="385"/><line style="stroke:#A80036;stroke-width:1;" x1="956.1" x2="1145.9525" y1="411.2969" y2="411.2969"/><text fill="#000000" font-family="sans-serif" font-size="14" lengthAdjust="spacing" textLength="169.8525" x="966.1" y="402.9951">REGISTRAR_ASISTENCIA</text></g><g id="REPORTES"><rect fill="#FEFECE" filter="url(#frlw27r954qgo)" height="50" rx="12.5" ry="12.5" style="stroke:#A80036;stroke-width:1;" width="94.0469" x="7" y="236"/><line style="stroke:#A80036;stroke-width:1;" x1="7" x2="101.0469" y1="262.2969" y2="262.2969"/><text fill="#000000" font-family="sans-serif" font-size="14" lengthAdjust="spacing" textLength="74.0469" x="17" y="253.9951">REPORTES</text></g><ellipse cx="388.02" cy="410" fill="none" filter="url(#frlw27r954qgo)" rx="11" ry="11" style="stroke:#000000;stroke-width:1;"/><ellipse cx="388.02" cy="410" fill="#000000" rx="6" ry="6" style="stroke:#000000;stroke-width:1;"/><!--link *start* to INICIAL--><g class="link" data-entity-1=".start." data-entity-2="INICIAL" data-source-line="7" data-uid="lnk4" id="link_.start._INICIAL"><path d="M388.02,26.36 C388.02,40.29 388.02,60.95 388.02,80.65" fill="none" id="*start*-to-INICIAL" style="stroke:#A80036;stroke-width:1;"/><polygon fill="#A80036" points="388.02,86.65,392.02,77.65,388.02,81.65,384.02,77.65,388.02,86.65" style="stroke:#A80036;stroke-width:1;"/></g><!--link INICIAL to DASHBOARD_FUNCIONARIO--><g class="link" data-entity-1="INICIAL" data-entity-2="DASHBOARD_FUNCIONARIO" data-source-line="9" data-uid="lnk6" id="link_INICIAL_DASHBOARD_FUNCIONARIO"><path d="M388.02,137.27 C388.02,164.51 388.02,202.44 388.02,229.69" fill="none" id="INICIAL-to-DASHBOARD_FUNCIONARIO" style="stroke:#A80036;stroke-width:1;"/><polygon fill="#A80036" points="388.02,235.69,392.02,226.69,388.02,230.69,384.02,226.69,388.02,235.69" style="stroke:#A80036;stroke-width:1;"/><path d="M393.02,172 L393.02,197 L445.02,197 L445.02,182 L435.02,172 L393.02,172" fill="#FFFFFF" filter="url(#frlw27r954qgo)" style="stroke:#A80036;stroke-width:1;"/><path d="M435.02,172 L435.02,182 L445.02,182 L435.02,172" fill="#FFFFFF" style="stroke:#A80036;stroke-width:1;"/><text fill="#000000" font-family="sans-serif" font-size="13" lengthAdjust="spacing" textLength="31.6685" x="399.02" y="189.0669">login</text></g><!--link DASHBOARD_FUNCIONARIO to REVISAR_CITAS--><g class="link" data-entity-1="DASHBOARD_FUNCIONARIO" data-entity-2="REVISAR_CITAS" data-source-line="12" data-uid="lnk8" id="link_DASHBOARD_FUNCIONARIO_REVISAR_CITAS"><path d="M424.44,235.65 C452.11,218 491.89,195.99 530.52,186.5 C655.38,155.83 798.8751,201.2667 878.5551,233.3867" fill="none" id="DASHBOARD_FUNCIONARIO-to-REVISAR_CITAS" style="stroke:#A80036;stroke-width:1;"/><polygon fill="#A80036" points="884.12,235.63,877.2682,228.5552,879.4826,233.7606,874.2772,235.975,884.12,235.63" style="stroke:#A80036;stroke-width:1;"/></g><!--reverse link DASHBOARD_FUNCIONARIO to REVISAR_CITAS--><g class="link" data-entity-1="DASHBOARD_FUNCIONARIO" data-entity-2="REVISAR_CITAS" data-source-line="13" data-uid="lnk10" id="link_DASHBOARD_FUNCIONARIO_REVISAR_CITAS"><path d="M445.2786,233.0892 C488.5386,213.3492 546.97,190.1 606.02,179.42 C676,166.75 696.6,164.03 766.02,179.42 C814.62,190.19 865.73,215.92 900.07,235.62" fill="none" id="DASHBOARD_FUNCIONARIO-backto-REVISAR_CITAS" style="stroke:#A80036;stroke-width:1;"/><polygon fill="#A80036" points="439.82,235.58,449.6684,235.4828,444.3688,233.5043,446.3473,228.2048,439.82,235.58" style="stroke:#A80036;stroke-width:1;"/><path d="M611.02,172 L611.02,197 L757.02,197 L757.02,182 L747.02,172 L611.02,172" fill="#FFFFFF" filter="url(#frlw27r954qgo)" style="stroke:#A80036;stroke-width:1;"/><path d="M747.02,172 L747.02,182 L757.02,182 L747.02,172" fill="#FFFFFF" style="stroke:#A80036;stroke-width:1;"/><text fill="#000000" font-family="sans-serif" font-size="13" lengthAdjust="spacing" textLength="125.6074" x="617.02" y="189.0669">verCitasPendientes</text></g><!--link REVISAR_CITAS to APROBAR_CITA--><g class="link" data-entity-1="REVISAR_CITAS" data-entity-2="APROBAR_CITA" data-source-line="16" data-uid="lnk12" id="link_REVISAR_CITAS_APROBAR_CITA"><path d="M876.44,282.44 C861.24,290.43 846.91,301.32 838.02,316 C825.55,336.63 828.0074,358.9736 833.5974,378.8736" fill="none" id="REVISAR_CITAS-to-APROBAR_CITA" style="stroke:#A80036;stroke-width:1;"/><polygon fill="#A80036" points="835.22,384.65,836.637,374.9036,833.8678,379.8363,828.9351,377.0671,835.22,384.65" style="stroke:#A80036;stroke-width:1;"/></g><!--reverse link REVISAR_CITAS to APROBAR_CITA--><g class="link" data-entity-1="REVISAR_CITAS" data-entity-2="APROBAR_CITA" data-source-line="17" data-uid="lnk14" id="link_REVISAR_CITAS_APROBAR_CITA"><path d="M895.9179,289.8805 C884.9679,298.1305 878.8,304.58 871.02,316 C856.92,336.7 850.09,364.81 846.84,384.69" fill="none" id="REVISAR_CITAS-backto-APROBAR_CITA" style="stroke:#A80036;stroke-width:1;"/><polygon fill="#A80036" points="900.71,286.27,891.1148,288.491,896.7166,289.2787,895.9288,294.8805,900.71,286.27" style="stroke:#A80036;stroke-width:1;"/><path d="M876.02,321 L876.02,346 L973.02,346 L973.02,331 L963.02,321 L876.02,321" fill="#FFFFFF" filter="url(#frlw27r954qgo)" style="stroke:#A80036;stroke-width:1;"/><path d="M963.02,321 L963.02,331 L973.02,331 L963.02,321" fill="#FFFFFF" style="stroke:#A80036;stroke-width:1;"/><text fill="#000000" font-family="sans-serif" font-size="13" lengthAdjust="spacing" textLength="76.832" x="882.02" y="338.0669">aprobarCita</text></g><!--link REVISAR_CITAS to RECHAZAR_CITA--><g class="link" data-entity-1="REVISAR_CITAS" data-entity-2="RECHAZAR_CITA" data-source-line="20" data-uid="lnk16" id="link_REVISAR_CITAS_RECHAZAR_CITA"><path d="M1005.64,262.99 C1021.99,263.41 1039.52,263.79 1055.76,264 C1088.97,264.43 1119.8417,264.042 1150.6717,263.312" fill="none" id="REVISAR_CITAS-to-RECHAZAR_CITA" style="stroke:#A80036;stroke-width:1;"/><polygon fill="#A80036" points="1156.67,263.17,1147.5778,259.3842,1151.6714,263.2884,1147.7672,267.3819,1156.67,263.17" style="stroke:#A80036;stroke-width:1;"/></g><!--reverse link REVISAR_CITAS to RECHAZAR_CITA--><g class="link" data-entity-1="REVISAR_CITAS" data-entity-2="RECHAZAR_CITA" data-source-line="21" data-uid="lnk18" id="link_REVISAR_CITAS_RECHAZAR_CITA"><path d="M1011.47,261 C1056.47,261 1110.47,261 1156.37,261" fill="none" id="REVISAR_CITAS-backto-RECHAZAR_CITA" style="stroke:#A80036;stroke-width:1;"/><polygon fill="#A80036" points="1005.47,261,1014.47,265,1010.47,261,1014.47,257,1005.47,261" style="stroke:#A80036;stroke-width:1;"/><path d="M1027.53,224 L1027.53,249 L1130.53,249 L1130.53,234 L1120.53,224 L1027.53,224" fill="#FFFFFF" filter="url(#frlw27r954qgo)" style="stroke:#A80036;stroke-width:1;"/><path d="M1120.53,224 L1120.53,234 L1130.53,234 L1120.53,224" fill="#FFFFFF" style="stroke:#A80036;stroke-width:1;"/><text fill="#000000" font-family="sans-serif" font-size="13" lengthAdjust="spacing" textLength="82.583" x="1033.53" y="241.0669">rechazarCita</text></g><!--reverse link REPROGRAMAR_CITA to REVISAR_CITAS--><g class="link" data-entity-1="REPROGRAMAR_CITA" data-entity-2="REVISAR_CITAS" data-source-line="24" data-uid="lnk21" id="link_REPROGRAMAR_CITA_REVISAR_CITAS"><path d="M705.2988,263.3787 C741.6888,264.0987 778.75,264.47 817.62,264 C836.69,263.77 857.41,263.34 876.34,262.87" fill="none" id="REPROGRAMAR_CITA-backto-REVISAR_CITAS" style="stroke:#A80036;stroke-width:1;"/><polygon fill="#A80036" points="699.3,263.26,708.2191,267.4373,704.299,263.3589,708.3774,259.4388,699.3,263.26" style="stroke:#A80036;stroke-width:1;"/></g><!--link REPROGRAMAR_CITA to REVISAR_CITAS--><g class="link" data-entity-1="REPROGRAMAR_CITA" data-entity-2="REVISAR_CITAS" data-source-line="25" data-uid="lnk22" id="link_REPROGRAMAR_CITA_REVISAR_CITAS"><path d="M699.4,261 C754.68,261 819.82,261 870.56,261" fill="none" id="REPROGRAMAR_CITA-to-REVISAR_CITAS" style="stroke:#A80036;stroke-width:1;"/><polygon fill="#A80036" points="876.56,261,867.56,257,871.56,261,867.56,265,876.56,261" style="stroke:#A80036;stroke-width:1;"/><path d="M721.51,224 L721.51,249 L850.51,249 L850.51,234 L840.51,224 L721.51,224" fill="#FFFFFF" filter="url(#frlw27r954qgo)" style="stroke:#A80036;stroke-width:1;"/><path d="M840.51,224 L840.51,234 L850.51,234 L840.51,224" fill="#FFFFFF" style="stroke:#A80036;stroke-width:1;"/><text fill="#000000" font-family="sans-serif" font-size="13" lengthAdjust="spacing" textLength="108.1831" x="727.51" y="241.0669">reprogramarCita</text></g><!--link REVISAR_CITAS to REGISTRAR_ASISTENCIA--><g class="link" data-entity-1="REVISAR_CITAS" data-entity-2="REGISTRAR_ASISTENCIA" data-source-line="28" data-uid="lnk24" id="link_REVISAR_CITAS_REGISTRAR_ASISTENCIA"><path d="M962.08,286.38 C969.79,295.53 978.47,306.11 986.02,316 C1003.36,338.7 1018.551,360.5483 1031.381,379.5383" fill="none" id="REVISAR_CITAS-to-REGISTRAR_ASISTENCIA" style="stroke:#A80036;stroke-width:1;"/><polygon fill="#A80036" points="1034.74,384.51,1033.016,374.8132,1031.9409,380.3669,1026.3871,379.2918,1034.74,384.51" style="stroke:#A80036;stroke-width:1;"/></g><!--reverse link REVISAR_CITAS to REGISTRAR_ASISTENCIA--><g class="link" data-entity-1="REVISAR_CITAS" data-entity-2="REGISTRAR_ASISTENCIA" data-source-line="29" data-uid="lnk26" id="link_REVISAR_CITAS_REGISTRAR_ASISTENCIA"><path d="M997.8536,289.5844 C1010.2436,297.5144 1017.33,304.17 1026.02,316 C1040.87,336.21 1046.9,364.66 1049.35,384.76" fill="none" id="REVISAR_CITAS-backto-REGISTRAR_ASISTENCIA" style="stroke:#A80036;stroke-width:1;"/><polygon fill="#A80036" points="992.8,286.35,998.224,294.5707,997.0113,289.0454,1002.5366,287.8326,992.8,286.35" style="stroke:#A80036;stroke-width:1;"/><path d="M1048.02,321 L1048.02,346 L1190.02,346 L1190.02,331 L1180.02,321 L1048.02,321" fill="#FFFFFF" filter="url(#frlw27r954qgo)" style="stroke:#A80036;stroke-width:1;"/><path d="M1180.02,321 L1180.02,331 L1190.02,331 L1180.02,321" fill="#FFFFFF" style="stroke:#A80036;stroke-width:1;"/><text fill="#000000" font-family="sans-serif" font-size="13" lengthAdjust="spacing" textLength="121.8433" x="1054.02" y="338.0669">registrarAsistencia</text></g><!--reverse link REPORTES to DASHBOARD_FUNCIONARIO--><g class="link" data-entity-1="REPORTES" data-entity-2="DASHBOARD_FUNCIONARIO" data-source-line="32" data-uid="lnk29" id="link_REPORTES_DASHBOARD_FUNCIONARIO"><path d="M107.5372,262.8019 C125.9972,263.3619 141.33,263.73 160.69,264 C199.47,264.55 241.96,264.23 279.61,263.63" fill="none" id="REPORTES-backto-DASHBOARD_FUNCIONARIO" style="stroke:#A80036;stroke-width:1;"/><polygon fill="#A80036" points="101.54,262.62,110.4146,266.8911,106.5377,262.7716,110.6571,258.8947,101.54,262.62" style="stroke:#A80036;stroke-width:1;"/></g><!--link REPORTES to DASHBOARD_FUNCIONARIO--><g class="link" data-entity-1="REPORTES" data-entity-2="DASHBOARD_FUNCIONARIO" data-source-line="33" data-uid="lnk30" id="link_REPORTES_DASHBOARD_FUNCIONARIO"><path d="M101.52,261 C147.72,261 213.53,261 273.7,261" fill="none" id="REPORTES-to-DASHBOARD_FUNCIONARIO" style="stroke:#A80036;stroke-width:1;"/><polygon fill="#A80036" points="279.7,261,270.7,257,274.7,261,270.7,265,279.7,261" style="stroke:#A80036;stroke-width:1;"/><path d="M123.51,224 L123.51,249 L253.51,249 L253.51,234 L243.51,224 L123.51,224" fill="#FFFFFF" filter="url(#frlw27r954qgo)" style="stroke:#A80036;stroke-width:1;"/><path d="M243.51,224 L243.51,234 L253.51,234 L243.51,224" fill="#FFFFFF" style="stroke:#A80036;stroke-width:1;"/><text fill="#000000" font-family="sans-serif" font-size="13" lengthAdjust="spacing" textLength="109.5923" x="129.51" y="241.0669">generarReportes</text></g><!--link DASHBOARD_FUNCIONARIO to *end*--><g class="link" data-entity-1="DASHBOARD_FUNCIONARIO" data-entity-2=".end." data-source-line="36" data-uid="lnk32" id="link_DASHBOARD_FUNCIONARIO_.end."><path d="M388.02,286.27 C388.02,318.89 388.02,369.45 388.02,392.63" fill="none" id="DASHBOARD_FUNCIONARIO-to-*end*" style="stroke:#A80036;stroke-width:1;"/><polygon fill="#A80036" points="388.02,398.63,392.02,389.63,388.02,393.63,384.02,389.63,388.02,398.63" style="stroke:#A80036;stroke-width:1;"/><path d="M393.02,321 L393.02,346 L455.02,346 L455.02,331 L445.02,321 L393.02,321" fill="#FFFFFF" filter="url(#frlw27r954qgo)" style="stroke:#A80036;stroke-width:1;"/><path d="M445.02,321 L445.02,331 L455.02,331 L445.02,321" fill="#FFFFFF" style="stroke:#A80036;stroke-width:1;"/><text fill="#000000" font-family="sans-serif" font-size="13" lengthAdjust="spacing" textLength="41.1074" x="399.02" y="338.0669">logout</text></g><!--SRC=[ZLB1JiCm3BtxAtn6wWzmG4gpiKM2TaeB1n2QmcfrqKeo9Ir88FwTj1s2hYli5FifVi_FjjzfWyvw0X-YlNBg1Osj2Jy0CLQRNUbiOmfkA-lmRQjhWay0UBnumYYwGf48BjWDm270g0ZeZ6NBE6Lojhw-IxX84oP52XsjDLXfixl4ofRQ09pyYf4BB79-Bp8crrpaB8D1Xb5rfimhEQvhvLTa2asc9W_7L6t7R2NJ-031xmIZPjJAK47jdNrMdSg8khV1b-pXctkGzJR-8dUqsQht2VQ-E3IxaEpsHs08d9hbiKPmK8R5JyWKNVr2PBaC8Cj2C0_ZRgN6uF_pSbHgNplbc0ylcOrMasTmS9ZAVDvUG1_qZivPVac6Wf2alNNTvYTaMeVXeiSNQflw2m00]--></g></svg>
