<svg xmlns="http://www.w3.org/2000/svg" xmlns:xlink="http://www.w3.org/1999/xlink" contentStyleType="text/css" data-diagram-type="STATE" height="449px" preserveAspectRatio="none" style="width:1289px;height:449px;background:#FFFFFF;" version="1.1" viewBox="0 0 1289 449" width="1289px" zoomAndPan="magnify"><defs><filter height="300%" id="fon4swg5lf1cj" width="300%" x="-1" y="-1"><feGaussianBlur result="blurOut" stdDeviation="2"/><feColorMatrix in="blurOut" result="blurOut2" type="matrix" values="0 0 0 0 0 0 0 0 0 0 0 0 0 0 0 0 0 0 .4 0"/><feOffset dx="4" dy="4" in="blurOut2" result="blurOut3"/><feBlend in="SourceGraphic" in2="blurOut3" mode="normal"/></filter></defs><g><ellipse cx="779.55" cy="16" fill="#000000" filter="url(#fon4swg5lf1cj)" rx="10" ry="10" style="stroke:#000000;stroke-width:1;"/><g id="INICIAL"><rect fill="#FEFECE" filter="url(#fon4swg5lf1cj)" height="50" rx="12.5" ry="12.5" style="stroke:#A80036;stroke-width:1;" width="70.0117" x="744.55" y="87"/><line style="stroke:#A80036;stroke-width:1;" x1="744.55" x2="814.5617" y1="113.2969" y2="113.2969"/><text fill="#000000" font-family="sans-serif" font-size="14" lengthAdjust="spacing" textLength="50.0117" x="754.55" y="104.9951">INICIAL</text></g><g id="DASHBOARD_CIUDADANO"><rect fill="#FEFECE" filter="url(#fon4swg5lf1cj)" height="50" rx="12.5" ry="12.5" style="stroke:#A80036;stroke-width:1;" width="203.8389" x="677.63" y="236"/><line style="stroke:#A80036;stroke-width:1;" x1="677.63" x2="881.4689" y1="262.2969" y2="262.2969"/><text fill="#000000" font-family="sans-serif" font-size="14" lengthAdjust="spacing" textLength="183.8389" x="687.63" y="253.9951">DASHBOARD_CIUDADANO</text></g><g id="INGRESAR_DATOS"><rect fill="#FEFECE" filter="url(#fon4swg5lf1cj)" height="50" rx="12.5" ry="12.5" style="stroke:#A80036;stroke-width:1;" width="148.0303" x="1127.54" y="236"/><line style="stroke:#A80036;stroke-width:1;" x1="1127.54" x2="1275.5703" y1="262.2969" y2="262.2969"/><text fill="#000000" font-family="sans-serif" font-size="14" lengthAdjust="spacing" textLength="128.0303" x="1137.54" y="253.9951">INGRESAR_DATOS</text></g><g id="MOSTRAR_ESTADO"><rect fill="#FEFECE" filter="url(#fon4swg5lf1cj)" height="50" rx="12.5" ry="12.5" style="stroke:#A80036;stroke-width:1;" width="154.2305" x="314.44" y="236"/><line style="stroke:#A80036;stroke-width:1;" x1="314.44" x2="468.6705" y1="262.2969" y2="262.2969"/><text fill="#000000" font-family="sans-serif" font-size="14" lengthAdjust="spacing" textLength="134.2305" x="324.44" y="253.9951">MOSTRAR_ESTADO</text></g><g id="REPROGRAMAR_CITA"><rect fill="#FEFECE" filter="url(#fon4swg5lf1cj)" height="50" rx="12.5" ry="12.5" style="stroke:#A80036;stroke-width:1;" width="168.333" x="307.39" y="385"/><line style="stroke:#A80036;stroke-width:1;" x1="307.39" x2="475.723" y1="411.2969" y2="411.2969"/><text fill="#000000" font-family="sans-serif" font-size="14" lengthAdjust="spacing" textLength="148.333" x="317.39" y="402.9951">REPROGRAMAR_CITA</text></g><g id="NOTIFICACION"><rect fill="#FEFECE" filter="url(#fon4swg5lf1cj)" height="50" rx="12.5" ry="12.5" style="stroke:#A80036;stroke-width:1;" width="121.1035" x="7" y="236"/><line style="stroke:#A80036;stroke-width:1;" x1="7" x2="128.1035" y1="262.2969" y2="262.2969"/><text fill="#000000" font-family="sans-serif" font-size="14" lengthAdjust="spacing" textLength="101.1035" x="17" y="253.9951">NOTIFICACION</text></g><ellipse cx="779.55" cy="410" fill="none" filter="url(#fon4swg5lf1cj)" rx="11" ry="11" style="stroke:#000000;stroke-width:1;"/><ellipse cx="779.55" cy="410" fill="#000000" rx="6" ry="6" style="stroke:#000000;stroke-width:1;"/><!--link *start* to INICIAL--><g class="link" data-entity-1=".start." data-entity-2="INICIAL" data-source-line="7" data-uid="lnk4" id="link_.start._INICIAL"><path d="M779.55,26.36 C779.55,40.29 779.55,60.95 779.55,80.65" fill="none" id="*start*-to-INICIAL" style="stroke:#A80036;stroke-width:1;"/><polygon fill="#A80036" points="779.55,86.65,783.55,77.65,779.55,81.65,775.55,77.65,779.55,86.65" style="stroke:#A80036;stroke-width:1;"/></g><!--link INICIAL to DASHBOARD_CIUDADANO--><g class="link" data-entity-1="INICIAL" data-entity-2="DASHBOARD_CIUDADANO" data-source-line="9" data-uid="lnk6" id="link_INICIAL_DASHBOARD_CIUDADANO"><path d="M779.55,137.27 C779.55,164.51 779.55,202.44 779.55,229.69" fill="none" id="INICIAL-to-DASHBOARD_CIUDADANO" style="stroke:#A80036;stroke-width:1;"/><polygon fill="#A80036" points="779.55,235.69,783.55,226.69,779.55,230.69,775.55,226.69,779.55,235.69" style="stroke:#A80036;stroke-width:1;"/><path d="M784.55,172 L784.55,197 L836.55,197 L836.55,182 L826.55,172 L784.55,172" fill="#FFFFFF" filter="url(#fon4swg5lf1cj)" style="stroke:#A80036;stroke-width:1;"/><path d="M826.55,172 L826.55,182 L836.55,182 L826.55,172" fill="#FFFFFF" style="stroke:#A80036;stroke-width:1;"/><text fill="#000000" font-family="sans-serif" font-size="13" lengthAdjust="spacing" textLength="31.6685" x="790.55" y="189.0669">login</text></g><!--link DASHBOARD_CIUDADANO to INGRESAR_DATOS--><g class="link" data-entity-1="DASHBOARD_CIUDADANO" data-entity-2="INGRESAR_DATOS" data-source-line="12" data-uid="lnk8" id="link_DASHBOARD_CIUDADANO_INGRESAR_DATOS"><path d="M881.85,263.15 C931.29,263.94 991.49,264.52 1045.51,264 C1072.2,263.74 1095.4512,263.3605 1121.3412,262.8405" fill="none" id="DASHBOARD_CIUDADANO-to-INGRESAR_DATOS" style="stroke:#A80036;stroke-width:1;"/><polygon fill="#A80036" points="1127.34,262.72,1118.2615,258.9015,1122.341,262.8204,1118.4221,266.8999,1127.34,262.72" style="stroke:#A80036;stroke-width:1;"/></g><!--reverse link DASHBOARD_CIUDADANO to INGRESAR_DATOS--><g class="link" data-entity-1="DASHBOARD_CIUDADANO" data-entity-2="INGRESAR_DATOS" data-source-line="13" data-uid="lnk10" id="link_DASHBOARD_CIUDADANO_INGRESAR_DATOS"><path d="M887.71,261 C963.45,261 1058.95,261 1127.12,261" fill="none" id="DASHBOARD_CIUDADANO-backto-INGRESAR_DATOS" style="stroke:#A80036;stroke-width:1;"/><polygon fill="#A80036" points="881.71,261,890.71,265,886.71,261,890.71,257,881.71,261" style="stroke:#A80036;stroke-width:1;"/><path d="M903.5,224 L903.5,249 L1101.5,249 L1101.5,234 L1091.5,224 L903.5,224" fill="#FFFFFF" filter="url(#fon4swg5lf1cj)" style="stroke:#A80036;stroke-width:1;"/><path d="M1091.5,224 L1091.5,234 L1101.5,234 L1091.5,224" fill="#FFFFFF" style="stroke:#A80036;stroke-width:1;"/><text fill="#000000" font-family="sans-serif" font-size="13" lengthAdjust="spacing" textLength="177.4043" x="909.5" y="241.0669">ingresarDatosParaConsulta</text></g><!--reverse link MOSTRAR_ESTADO to DASHBOARD_CIUDADANO--><g class="link" data-entity-1="MOSTRAR_ESTADO" data-entity-2="DASHBOARD_CIUDADANO" data-source-line="17" data-uid="lnk13" id="link_MOSTRAR_ESTADO_DASHBOARD_CIUDADANO"><path d="M474.8587,263.0031 C497.2687,263.4631 515.77,263.77 538.32,264 C583.87,264.47 634.25,263.99 677.14,263.3" fill="none" id="MOSTRAR_ESTADO-backto-DASHBOARD_CIUDADANO" style="stroke:#A80036;stroke-width:1;"/><polygon fill="#A80036" points="468.86,262.88,477.776,267.0639,473.8589,262.9826,477.9402,259.0655,468.86,262.88" style="stroke:#A80036;stroke-width:1;"/></g><!--link MOSTRAR_ESTADO to DASHBOARD_CIUDADANO--><g class="link" data-entity-1="MOSTRAR_ESTADO" data-entity-2="DASHBOARD_CIUDADANO" data-source-line="18" data-uid="lnk14" id="link_MOSTRAR_ESTADO_DASHBOARD_CIUDADANO"><path d="M469.14,261 C528.96,261 606.21,261 671.44,261" fill="none" id="MOSTRAR_ESTADO-to-DASHBOARD_CIUDADANO" style="stroke:#A80036;stroke-width:1;"/><polygon fill="#A80036" points="677.44,261,668.44,257,672.44,261,668.44,265,677.44,261" style="stroke:#A80036;stroke-width:1;"/><path d="M491.15,224 L491.15,249 L651.15,249 L651.15,234 L641.15,224 L491.15,224" fill="#FFFFFF" filter="url(#fon4swg5lf1cj)" style="stroke:#A80036;stroke-width:1;"/><path d="M641.15,224 L641.15,234 L651.15,234 L641.15,224" fill="#FFFFFF" style="stroke:#A80036;stroke-width:1;"/><text fill="#000000" font-family="sans-serif" font-size="13" lengthAdjust="spacing" textLength="139.1597" x="497.15" y="241.0669">mostrarEstadoDeCita</text></g><!--link MOSTRAR_ESTADO to REPROGRAMAR_CITA--><g class="link" data-entity-1="MOSTRAR_ESTADO" data-entity-2="REPROGRAMAR_CITA" data-source-line="21" data-uid="lnk16" id="link_MOSTRAR_ESTADO_REPROGRAMAR_CITA"><path d="M387.71,286.4 C386.43,295.64 385.18,306.28 384.55,316 C383.44,333.3 383.44,337.7 384.55,355 C385.18,364.72 385.6067,369.4168 386.8867,378.6568" fill="none" id="MOSTRAR_ESTADO-to-REPROGRAMAR_CITA" style="stroke:#A80036;stroke-width:1;"/><polygon fill="#A80036" points="387.71,384.6,390.4372,375.1363,387.0239,379.6473,382.5129,376.234,387.71,384.6" style="stroke:#A80036;stroke-width:1;"/></g><!--reverse link MOSTRAR_ESTADO to REPROGRAMAR_CITA--><g class="link" data-entity-1="MOSTRAR_ESTADO" data-entity-2="REPROGRAMAR_CITA" data-source-line="22" data-uid="lnk18" id="link_MOSTRAR_ESTADO_REPROGRAMAR_CITA"><path d="M391.55,292.27 C391.55,319.51 391.55,357.44 391.55,384.69" fill="none" id="MOSTRAR_ESTADO-backto-REPROGRAMAR_CITA" style="stroke:#A80036;stroke-width:1;"/><polygon fill="#A80036" points="391.55,286.27,387.55,295.27,391.55,291.27,395.55,295.27,391.55,286.27" style="stroke:#A80036;stroke-width:1;"/><path d="M396.55,321 L396.55,346 L525.55,346 L525.55,331 L515.55,321 L396.55,321" fill="#FFFFFF" filter="url(#fon4swg5lf1cj)" style="stroke:#A80036;stroke-width:1;"/><path d="M515.55,321 L515.55,331 L525.55,331 L515.55,321" fill="#FFFFFF" style="stroke:#A80036;stroke-width:1;"/><text fill="#000000" font-family="sans-serif" font-size="13" lengthAdjust="spacing" textLength="108.1831" x="402.55" y="338.0669">reprogramarCita</text></g><!--reverse link NOTIFICACION to MOSTRAR_ESTADO--><g class="link" data-entity-1="NOTIFICACION" data-entity-2="MOSTRAR_ESTADO" data-source-line="25" data-uid="lnk21" id="link_NOTIFICACION_MOSTRAR_ESTADO"><path d="M134.3781,262.9321 C154.0981,263.4321 170.09,263.75 190.21,264 C231.11,264.5 276.68,263.92 314.11,263.14" fill="none" id="NOTIFICACION-backto-MOSTRAR_ESTADO" style="stroke:#A80036;stroke-width:1;"/><polygon fill="#A80036" points="128.38,262.78,137.2757,267.0068,133.3784,262.9067,137.4785,259.0094,128.38,262.78" style="stroke:#A80036;stroke-width:1;"/></g><!--link NOTIFICACION to MOSTRAR_ESTADO--><g class="link" data-entity-1="NOTIFICACION" data-entity-2="MOSTRAR_ESTADO" data-source-line="26" data-uid="lnk22" id="link_NOTIFICACION_MOSTRAR_ESTADO"><path d="M128.49,261 C181.01,261 251.12,261 307.98,261" fill="none" id="NOTIFICACION-to-MOSTRAR_ESTADO" style="stroke:#A80036;stroke-width:1;"/><polygon fill="#A80036" points="313.98,261,304.98,257,308.98,261,304.98,265,313.98,261" style="stroke:#A80036;stroke-width:1;"/><path d="M150.27,224 L150.27,249 L288.27,249 L288.27,234 L278.27,224 L150.27,224" fill="#FFFFFF" filter="url(#fon4swg5lf1cj)" style="stroke:#A80036;stroke-width:1;"/><path d="M278.27,224 L278.27,234 L288.27,234 L278.27,224" fill="#FFFFFF" style="stroke:#A80036;stroke-width:1;"/><text fill="#000000" font-family="sans-serif" font-size="13" lengthAdjust="spacing" textLength="117.4951" x="156.27" y="241.0669">enviarNotificacion</text></g><!--link DASHBOARD_CIUDADANO to *end*--><g class="link" data-entity-1="DASHBOARD_CIUDADANO" data-entity-2=".end." data-source-line="29" data-uid="lnk24" id="link_DASHBOARD_CIUDADANO_.end."><path d="M779.55,286.27 C779.55,318.89 779.55,369.45 779.55,392.63" fill="none" id="DASHBOARD_CIUDADANO-to-*end*" style="stroke:#A80036;stroke-width:1;"/><polygon fill="#A80036" points="779.55,398.63,783.55,389.63,779.55,393.63,775.55,389.63,779.55,398.63" style="stroke:#A80036;stroke-width:1;"/><path d="M784.55,321 L784.55,346 L846.55,346 L846.55,331 L836.55,321 L784.55,321" fill="#FFFFFF" filter="url(#fon4swg5lf1cj)" style="stroke:#A80036;stroke-width:1;"/><path d="M836.55,321 L836.55,331 L846.55,331 L836.55,321" fill="#FFFFFF" style="stroke:#A80036;stroke-width:1;"/><text fill="#000000" font-family="sans-serif" font-size="13" lengthAdjust="spacing" textLength="41.1074" x="790.55" y="338.0669">logout</text></g><!--SRC=[ZP9DJiCm48NtSufP8-K2B91SEnHBDAwSi4Aeib8JhAIUodPWWRWxJik2_a5tyqRM- -RDEFREOw1e8UPgQuBPeATayHCGPwRjkq2ZNtCQAE37cqiMlW3W-UO5Y-8EPIMvP8y0FmKMwzmLh7wOAQR5YiidmGIh5EnCoUFWV7-B0tNE0vnvY4NO-SvrMJEz4gnHDHnAB8Qh8CvtmKOJX4aKbpaQ9n_78HcuG9vi5wfkT2QLTSE4WaEv7-v_yePY2YQKCPar2SlTn3oscZQbowLMSyqMkSzbm-2uWSLuEjGXBDXje2uVpeJpe2bMfHfvBpdZKbNmM-mZ_Gcm_jsPK55ohwurhQDBbviIvPznUciQqpS0]--></g></svg>
