<svg xmlns="http://www.w3.org/2000/svg" xmlns:xlink="http://www.w3.org/1999/xlink" contentStyleType="text/css" data-diagram-type="STATE" height="142px" preserveAspectRatio="none" style="width:1066px;height:142px;background:#FFFFFF;" version="1.1" viewBox="0 0 1066 142" width="1066px" zoomAndPan="magnify"><defs/><g><ellipse cx="51.18" cy="16" fill="#222222" rx="10" ry="10" style="stroke:#222222;stroke-width:1;"/><g id="Solicitada"><rect fill="#F1F1F1" height="50" rx="12.5" ry="12.5" style="stroke:#181818;stroke-width:0.5;" width="88.3525" x="7" y="86"/><line style="stroke:#181818;stroke-width:0.5;" x1="7" x2="95.3525" y1="112.2969" y2="112.2969"/><text fill="#000000" font-family="sans-serif" font-size="14" lengthAdjust="spacing" textLength="68.3525" x="17" y="103.9951">Solicitada</text></g><g id="PendienteDeEnvio"><rect fill="#F1F1F1" height="50" rx="12.5" ry="12.5" style="stroke:#181818;stroke-width:0.5;" width="148.1465" x="651.1" y="86"/><line style="stroke:#181818;stroke-width:0.5;" x1="651.1" x2="799.2465" y1="112.2969" y2="112.2969"/><text fill="#000000" font-family="sans-serif" font-size="14" lengthAdjust="spacing" textLength="128.1465" x="661.1" y="103.9951">PendienteDeEnvio</text></g><g id="Enviada"><rect fill="#F1F1F1" height="50" rx="12.5" ry="12.5" style="stroke:#181818;stroke-width:0.5;" width="75.9385" x="834.21" y="86"/><line style="stroke:#181818;stroke-width:0.5;" x1="834.21" x2="910.1485" y1="112.2969" y2="112.2969"/><text fill="#000000" font-family="sans-serif" font-size="14" lengthAdjust="spacing" textLength="55.9385" x="844.21" y="103.9951">Enviada</text></g><g id="Leida"><rect fill="#F1F1F1" height="50" rx="12.5" ry="12.5" style="stroke:#181818;stroke-width:0.5;" width="57.7686" x="945.29" y="86"/><line style="stroke:#181818;stroke-width:0.5;" x1="945.29" x2="1003.0586" y1="112.2969" y2="112.2969"/><text fill="#000000" font-family="sans-serif" font-size="14" lengthAdjust="spacing" textLength="37.7686" x="955.29" y="103.9951">Leida</text></g><g id="Confirmada"><rect fill="#F1F1F1" height="50" rx="12.5" ry="12.5" style="stroke:#181818;stroke-width:0.5;" width="101.4707" x="262.44" y="86"/><line style="stroke:#181818;stroke-width:0.5;" x1="262.44" x2="363.9107" y1="112.2969" y2="112.2969"/><text fill="#000000" font-family="sans-serif" font-size="14" lengthAdjust="spacing" textLength="81.4707" x="272.44" y="103.9951">Confirmada</text></g><g id="Rechazada"><rect fill="#F1F1F1" height="50" rx="12.5" ry="12.5" style="stroke:#181818;stroke-width:0.5;" width="96.8838" x="130.73" y="86"/><line style="stroke:#181818;stroke-width:0.5;" x1="130.73" x2="227.6138" y1="112.2969" y2="112.2969"/><text fill="#000000" font-family="sans-serif" font-size="14" lengthAdjust="spacing" textLength="76.8838" x="140.73" y="103.9951">Rechazada</text></g><g id="Cancelada"><rect fill="#F1F1F1" height="50" rx="12.5" ry="12.5" style="stroke:#181818;stroke-width:0.5;" width="93.4727" x="522.44" y="86"/><line style="stroke:#181818;stroke-width:0.5;" x1="522.44" x2="615.9127" y1="112.2969" y2="112.2969"/><text fill="#000000" font-family="sans-serif" font-size="14" lengthAdjust="spacing" textLength="73.4727" x="532.44" y="103.9951">Cancelada</text></g><g id="Realizada"><rect fill="#F1F1F1" height="50" rx="12.5" ry="12.5" style="stroke:#181818;stroke-width:0.5;" width="88.0928" x="399.13" y="86"/><line style="stroke:#181818;stroke-width:0.5;" x1="399.13" x2="487.2228" y1="112.2969" y2="112.2969"/><text fill="#000000" font-family="sans-serif" font-size="14" lengthAdjust="spacing" textLength="68.0928" x="409.13" y="103.9951">Realizada</text></g><ellipse cx="1049.18" cy="111" fill="none" rx="11" ry="11" style="stroke:#222222;stroke-width:1;"/><ellipse cx="1049.18" cy="111" fill="#222222" rx="6" ry="6" style="stroke:#222222;stroke-width:1;"/><!--link *start* to Solicitada--><g class="link" data-entity-1=".start." data-entity-2="Solicitada" data-source-line="1" data-uid="lnk4" id="link_.start._Solicitada"><path d="M51.18,26.26 C51.18,39.95 51.18,60.07 51.18,79.52" fill="none" id="*start*-to-Solicitada" style="stroke:#181818;stroke-width:1;"/><polygon fill="#181818" points="51.18,85.52,55.18,76.52,51.18,80.52,47.18,76.52,51.18,85.52" style="stroke:#181818;stroke-width:1;"/></g><!--link Solicitada to PendienteDeEnvio--><g class="link" data-entity-1="Solicitada" data-entity-2="PendienteDeEnvio" data-source-line="3" data-uid="lnk6" id="link_Solicitada_PendienteDeEnvio"><path d="M78.73,85.72 C93.09,74.25 111.61,61.95 130.68,56 C233.56,23.88 510.8,31.14 615.68,56 C640.31,61.84 660.4891,71.1557 680.6191,82.6457" fill="none" id="Solicitada-to-PendienteDeEnvio" style="stroke:#181818;stroke-width:1;"/><polygon fill="#181818" points="685.83,85.62,679.9965,77.6846,681.4876,83.1414,676.0308,84.6324,685.83,85.62" style="stroke:#181818;stroke-width:1;"/></g><!--link PendienteDeEnvio to Enviada--><g class="link" data-entity-1="PendienteDeEnvio" data-entity-2="Enviada" data-source-line="4" data-uid="lnk8" id="link_PendienteDeEnvio_Enviada"><path d="M799.54,111 C810.98,111 816.43,111 827.87,111" fill="none" id="PendienteDeEnvio-to-Enviada" style="stroke:#181818;stroke-width:1;"/><polygon fill="#181818" points="833.87,111,824.87,107,828.87,111,824.87,115,833.87,111" style="stroke:#181818;stroke-width:1;"/></g><!--link Enviada to Leida--><g class="link" data-entity-1="Enviada" data-entity-2="Leida" data-source-line="5" data-uid="lnk10" id="link_Enviada_Leida"><path d="M910.43,111 C922.05,111 927.67,111 939.29,111" fill="none" id="Enviada-to-Leida" style="stroke:#181818;stroke-width:1;"/><polygon fill="#181818" points="945.29,111,936.29,107,940.29,111,936.29,115,945.29,111" style="stroke:#181818;stroke-width:1;"/></g><!--link Solicitada to Confirmada--><g class="link" data-entity-1="Solicitada" data-entity-2="Confirmada" data-source-line="7" data-uid="lnk12" id="link_Solicitada_Confirmada"><path d="M78.73,85.72 C93.09,74.25 111.61,61.95 130.68,56 C171.83,43.15 186.31,43.85 227.68,56 C247.83,61.92 262.8947,70.6539 278.4147,82.1239" fill="none" id="Solicitada-to-Confirmada" style="stroke:#181818;stroke-width:1;"/><polygon fill="#181818" points="283.24,85.69,278.3795,77.124,279.219,82.7183,273.6247,83.5577,283.24,85.69" style="stroke:#181818;stroke-width:1;"/></g><!--link Solicitada to Rechazada--><g class="link" data-entity-1="Solicitada" data-entity-2="Rechazada" data-source-line="8" data-uid="lnk14" id="link_Solicitada_Rechazada"><path d="M95.68,111 C107.2,111 112.73,111 124.25,111" fill="none" id="Solicitada-to-Rechazada" style="stroke:#181818;stroke-width:1;"/><polygon fill="#181818" points="130.25,111,121.25,107,125.25,111,121.25,115,130.25,111" style="stroke:#181818;stroke-width:1;"/></g><!--link Solicitada to Cancelada--><g class="link" data-entity-1="Solicitada" data-entity-2="Cancelada" data-source-line="9" data-uid="lnk16" id="link_Solicitada_Cancelada"><path d="M78.73,85.72 C93.09,74.25 111.61,61.95 130.68,56 C206.4,32.36 411.81,32.8 487.68,56 C507.1,61.94 521.3448,70.5552 536.0848,82.0252" fill="none" id="Solicitada-to-Cancelada" style="stroke:#181818;stroke-width:1;"/><polygon fill="#181818" points="540.82,85.71,536.1736,77.026,536.874,82.6394,531.2606,83.3397,540.82,85.71" style="stroke:#181818;stroke-width:1;"/></g><!--link Confirmada to Realizada--><g class="link" data-entity-1="Confirmada" data-entity-2="Realizada" data-source-line="11" data-uid="lnk18" id="link_Confirmada_Realizada"><path d="M364.21,111 C375.73,111 381.24,111 392.76,111" fill="none" id="Confirmada-to-Realizada" style="stroke:#181818;stroke-width:1;"/><polygon fill="#181818" points="398.76,111,389.76,107,393.76,111,389.76,115,398.76,111" style="stroke:#181818;stroke-width:1;"/></g><!--link Confirmada to Cancelada--><g class="link" data-entity-1="Confirmada" data-entity-2="Cancelada" data-source-line="12" data-uid="lnk19" id="link_Confirmada_Cancelada"><path d="M343.11,85.69 C358.63,74.22 378.53,61.92 398.68,56 C436.63,44.85 449.85,44.43 487.68,56 C507.1,61.94 521.3448,70.5552 536.0848,82.0252" fill="none" id="Confirmada-to-Cancelada" style="stroke:#181818;stroke-width:1;"/><polygon fill="#181818" points="540.82,85.71,536.1736,77.026,536.874,82.6394,531.2606,83.3397,540.82,85.71" style="stroke:#181818;stroke-width:1;"/></g><!--link Rechazada to *end*--><g class="link" data-entity-1="Rechazada" data-entity-2=".end." data-source-line="14" data-uid="lnk21" id="link_Rechazada_.end."><path d="M208.32,85.7 C223.46,74.23 242.89,61.93 262.68,56 C341.44,32.39 928.09,21.39 1002.68,56 C1022.64,65.26 1034.2797,82.5103 1041.3897,95.6803" fill="none" id="Rechazada-to-*end*" style="stroke:#181818;stroke-width:1;"/><polygon fill="#181818" points="1044.24,100.96,1043.4843,91.1402,1041.8647,96.5602,1036.4447,94.9406,1044.24,100.96" style="stroke:#181818;stroke-width:1;"/></g><!--link Cancelada to *end*--><g class="link" data-entity-1="Cancelada" data-entity-2=".end." data-source-line="15" data-uid="lnk22" id="link_Cancelada_.end."><path d="M597.53,85.71 C612.28,74.24 631.25,61.94 650.68,56 C725.48,33.12 931.72,23.07 1002.68,56 C1022.64,65.26 1034.2797,82.5103 1041.3897,95.6803" fill="none" id="Cancelada-to-*end*" style="stroke:#181818;stroke-width:1;"/><polygon fill="#181818" points="1044.24,100.96,1043.4843,91.1402,1041.8647,96.5602,1036.4447,94.9406,1044.24,100.96" style="stroke:#181818;stroke-width:1;"/></g><!--link Realizada to *end*--><g class="link" data-entity-1="Realizada" data-entity-2=".end." data-source-line="16" data-uid="lnk23" id="link_Realizada_.end."><path d="M470.73,85.72 C485.09,74.25 503.61,61.95 522.68,56 C624.5,24.21 905.92,11.1 1002.68,56 C1022.64,65.26 1034.2797,82.5103 1041.3897,95.6803" fill="none" id="Realizada-to-*end*" style="stroke:#181818;stroke-width:1;"/><polygon fill="#181818" points="1044.24,100.96,1043.4843,91.1402,1041.8647,96.5602,1036.4447,94.9406,1044.24,100.96" style="stroke:#181818;stroke-width:1;"/></g><!--link Leida to *end*--><g class="link" data-entity-1="Leida" data-entity-2=".end." data-source-line="17" data-uid="lnk24" id="link_Leida_.end."><path d="M1003.47,111 C1014.9,111 1020.32,111 1031.75,111" fill="none" id="Leida-to-*end*" style="stroke:#181818;stroke-width:1;"/><polygon fill="#181818" points="1037.75,111,1028.75,107,1032.75,111,1028.75,115,1037.75,111" style="stroke:#181818;stroke-width:1;"/></g><!--SRC=[YzQALT3LjLC8pi_9JCuiIKn9vE92i1LqYu1o0QbvAPcfUIMfBgckUMMP-Lpe0X1b82P8FvI62FgaPc8pqZa_BospA1Ua75qgA3Kv8x4AcunpObvoQWxOYGZzC4s9EPbWJUWoI9hW9aDaehLYkU2o226uKGWXi2VWN000]--></g></svg>
