<svg xmlns="http://www.w3.org/2000/svg" xmlns:xlink="http://www.w3.org/1999/xlink" contentStyleType="text/css" data-diagram-type="STATE" height="449px" preserveAspectRatio="none" style="width:1234px;height:449px;background:#FFFFFF;" version="1.1" viewBox="0 0 1234 449" width="1234px" zoomAndPan="magnify"><defs><filter height="300%" id="f5r7jlnemnkoe" width="300%" x="-1" y="-1"><feGaussianBlur result="blurOut" stdDeviation="2"/><feColorMatrix in="blurOut" result="blurOut2" type="matrix" values="0 0 0 0 0 0 0 0 0 0 0 0 0 0 0 0 0 0 .4 0"/><feOffset dx="4" dy="4" in="blurOut2" result="blurOut3"/><feBlend in="SourceGraphic" in2="blurOut3" mode="normal"/></filter></defs><g><ellipse cx="479.19" cy="16" fill="#000000" filter="url(#f5r7jlnemnkoe)" rx="10" ry="10" style="stroke:#000000;stroke-width:1;"/><g id="INICIAL"><rect fill="#FEFECE" filter="url(#f5r7jlnemnkoe)" height="50" rx="12.5" ry="12.5" style="stroke:#A80036;stroke-width:1;" width="70.0117" x="444.19" y="87"/><line style="stroke:#A80036;stroke-width:1;" x1="444.19" x2="514.2017" y1="113.2969" y2="113.2969"/><text fill="#000000" font-family="sans-serif" font-size="14" lengthAdjust="spacing" textLength="50.0117" x="454.19" y="104.9951">INICIAL</text></g><g id="DASHBOARD_ADMIN"><rect fill="#FEFECE" filter="url(#f5r7jlnemnkoe)" height="50" rx="12.5" ry="12.5" style="stroke:#A80036;stroke-width:1;" width="164.5186" x="396.93" y="236"/><line style="stroke:#A80036;stroke-width:1;" x1="396.93" x2="561.4486" y1="262.2969" y2="262.2969"/><text fill="#000000" font-family="sans-serif" font-size="14" lengthAdjust="spacing" textLength="144.5186" x="406.93" y="253.9951">DASHBOARD_ADMIN</text></g><g id="REGISTRAR_FUNCIONARIO"><rect fill="#FEFECE" filter="url(#f5r7jlnemnkoe)" height="50" rx="12.5" ry="12.5" style="stroke:#A80036;stroke-width:1;" width="205.6436" x="1014.37" y="236"/><line style="stroke:#A80036;stroke-width:1;" x1="1014.37" x2="1220.0136" y1="262.2969" y2="262.2969"/><text fill="#000000" font-family="sans-serif" font-size="14" lengthAdjust="spacing" textLength="185.6436" x="1024.37" y="253.9951">REGISTRAR_FUNCIONARIO</text></g><g id="EDITAR_FUNCIONARIO"><rect fill="#FEFECE" filter="url(#f5r7jlnemnkoe)" height="50" rx="12.5" ry="12.5" style="stroke:#A80036;stroke-width:1;" width="177.2334" x="361.57" y="385"/><line style="stroke:#A80036;stroke-width:1;" x1="361.57" x2="538.8034" y1="411.2969" y2="411.2969"/><text fill="#000000" font-family="sans-serif" font-size="14" lengthAdjust="spacing" textLength="157.2334" x="371.57" y="402.9951">EDITAR_FUNCIONARIO</text></g><g id="ELIMINAR_FUNCIONARIO"><rect fill="#FEFECE" filter="url(#f5r7jlnemnkoe)" height="50" rx="12.5" ry="12.5" style="stroke:#A80036;stroke-width:1;" width="192.3818" x="7" y="236"/><line style="stroke:#A80036;stroke-width:1;" x1="7" x2="199.3818" y1="262.2969" y2="262.2969"/><text fill="#000000" font-family="sans-serif" font-size="14" lengthAdjust="spacing" textLength="172.3818" x="17" y="253.9951">ELIMINAR_FUNCIONARIO</text></g><g id="CONSULTAR_FUNCIONARIO"><rect fill="#FEFECE" filter="url(#f5r7jlnemnkoe)" height="50" rx="12.5" ry="12.5" style="stroke:#A80036;stroke-width:1;" width="211.6797" x="767.35" y="236"/><line style="stroke:#A80036;stroke-width:1;" x1="767.35" x2="979.0297" y1="262.2969" y2="262.2969"/><text fill="#000000" font-family="sans-serif" font-size="14" lengthAdjust="spacing" textLength="191.6797" x="777.35" y="253.9951">CONSULTAR_FUNCIONARIO</text></g><ellipse cx="668.19" cy="410" fill="none" filter="url(#f5r7jlnemnkoe)" rx="11" ry="11" style="stroke:#000000;stroke-width:1;"/><ellipse cx="668.19" cy="410" fill="#000000" rx="6" ry="6" style="stroke:#000000;stroke-width:1;"/><!--link *start* to INICIAL--><g class="link" data-entity-1=".start." data-entity-2="INICIAL" data-source-line="6" data-uid="lnk4" id="link_.start._INICIAL"><path d="M479.19,26.36 C479.19,40.29 479.19,60.95 479.19,80.65" fill="none" id="*start*-to-INICIAL" style="stroke:#A80036;stroke-width:1;"/><polygon fill="#A80036" points="479.19,86.65,483.19,77.65,479.19,81.65,475.19,77.65,479.19,86.65" style="stroke:#A80036;stroke-width:1;"/></g><!--link INICIAL to DASHBOARD_ADMIN--><g class="link" data-entity-1="INICIAL" data-entity-2="DASHBOARD_ADMIN" data-source-line="8" data-uid="lnk6" id="link_INICIAL_DASHBOARD_ADMIN"><path d="M479.19,137.27 C479.19,164.51 479.19,202.44 479.19,229.69" fill="none" id="INICIAL-to-DASHBOARD_ADMIN" style="stroke:#A80036;stroke-width:1;"/><polygon fill="#A80036" points="479.19,235.69,483.19,226.69,479.19,230.69,475.19,226.69,479.19,235.69" style="stroke:#A80036;stroke-width:1;"/><path d="M484.19,172 L484.19,197 L536.19,197 L536.19,182 L526.19,172 L484.19,172" fill="#FFFFFF" filter="url(#f5r7jlnemnkoe)" style="stroke:#A80036;stroke-width:1;"/><path d="M526.19,172 L526.19,182 L536.19,182 L526.19,172" fill="#FFFFFF" style="stroke:#A80036;stroke-width:1;"/><text fill="#000000" font-family="sans-serif" font-size="13" lengthAdjust="spacing" textLength="31.6685" x="490.19" y="189.0669">login</text></g><!--link DASHBOARD_ADMIN to REGISTRAR_FUNCIONARIO--><g class="link" data-entity-1="DASHBOARD_ADMIN" data-entity-2="REGISTRAR_FUNCIONARIO" data-source-line="11" data-uid="lnk8" id="link_DASHBOARD_ADMIN_REGISTRAR_FUNCIONARIO"><path d="M543.06,235.58 C638.82,201.03 824.8,147.74 978.69,186.5 C1016.42,196 1050.0463,214.7142 1076.8963,232.3642" fill="none" id="DASHBOARD_ADMIN-to-REGISTRAR_FUNCIONARIO" style="stroke:#A80036;stroke-width:1;"/><polygon fill="#A80036" points="1081.91,235.66,1076.5866,227.3738,1077.7319,232.9135,1072.1922,234.0588,1081.91,235.66" style="stroke:#A80036;stroke-width:1;"/></g><!--reverse link DASHBOARD_ADMIN to REGISTRAR_FUNCIONARIO--><g class="link" data-entity-1="DASHBOARD_ADMIN" data-entity-2="REGISTRAR_FUNCIONARIO" data-source-line="12" data-uid="lnk10" id="link_DASHBOARD_ADMIN_REGISTRAR_FUNCIONARIO"><path d="M538.4931,233.1562 C583.3931,213.4262 644.17,190.09 705.19,179.42 C777.86,166.7 798.36,167.65 871.19,179.42 C937.15,190.07 1009.37,215.82 1058.38,235.56" fill="none" id="DASHBOARD_ADMIN-backto-REGISTRAR_FUNCIONARIO" style="stroke:#A80036;stroke-width:1;"/><polygon fill="#A80036" points="533,235.57,542.8488,235.6114,537.5776,233.5585,539.6304,228.2873,533,235.57" style="stroke:#A80036;stroke-width:1;"/><path d="M710.19,172 L710.19,197 L862.19,197 L862.19,182 L852.19,172 L710.19,172" fill="#FFFFFF" filter="url(#f5r7jlnemnkoe)" style="stroke:#A80036;stroke-width:1;"/><path d="M852.19,172 L852.19,182 L862.19,182 L852.19,172" fill="#FFFFFF" style="stroke:#A80036;stroke-width:1;"/><text fill="#000000" font-family="sans-serif" font-size="13" lengthAdjust="spacing" textLength="131.5171" x="716.19" y="189.0669">registrarFuncionario</text></g><!--link DASHBOARD_ADMIN to EDITAR_FUNCIONARIO--><g class="link" data-entity-1="DASHBOARD_ADMIN" data-entity-2="EDITAR_FUNCIONARIO" data-source-line="15" data-uid="lnk12" id="link_DASHBOARD_ADMIN_EDITAR_FUNCIONARIO"><path d="M458.64,286.24 C452.42,295.04 446.39,305.43 443.19,316 C436.34,338.63 438.3348,359.8206 442.3848,378.9106" fill="none" id="DASHBOARD_ADMIN-to-EDITAR_FUNCIONARIO" style="stroke:#A80036;stroke-width:1;"/><polygon fill="#A80036" points="443.63,384.78,445.6751,375.1458,442.5923,379.8889,437.8493,376.8061,443.63,384.78" style="stroke:#A80036;stroke-width:1;"/></g><!--reverse link DASHBOARD_ADMIN to EDITAR_FUNCIONARIO--><g class="link" data-entity-1="DASHBOARD_ADMIN" data-entity-2="EDITAR_FUNCIONARIO" data-source-line="16" data-uid="lnk14" id="link_DASHBOARD_ADMIN_EDITAR_FUNCIONARIO"><path d="M473.2395,292.1567 C467.8695,319.3967 460.36,357.44 454.99,384.69" fill="none" id="DASHBOARD_ADMIN-backto-EDITAR_FUNCIONARIO" style="stroke:#A80036;stroke-width:1;"/><polygon fill="#A80036" points="474.4,286.27,468.7348,294.3264,473.4329,291.1756,476.5837,295.8737,474.4,286.27" style="stroke:#A80036;stroke-width:1;"/><path d="M473.19,321 L473.19,346 L608.19,346 L608.19,331 L598.19,321 L473.19,321" fill="#FFFFFF" filter="url(#f5r7jlnemnkoe)" style="stroke:#A80036;stroke-width:1;"/><path d="M598.19,321 L598.19,331 L608.19,331 L598.19,321" fill="#FFFFFF" style="stroke:#A80036;stroke-width:1;"/><text fill="#000000" font-family="sans-serif" font-size="13" lengthAdjust="spacing" textLength="114.0547" x="479.19" y="338.0669">editarFuncionario</text></g><!--reverse link ELIMINAR_FUNCIONARIO to DASHBOARD_ADMIN--><g class="link" data-entity-1="ELIMINAR_FUNCIONARIO" data-entity-2="DASHBOARD_ADMIN" data-source-line="19" data-uid="lnk17" id="link_ELIMINAR_FUNCIONARIO_DASHBOARD_ADMIN"><path d="M205.6591,263.3635 C246.2391,264.0635 287.96,264.44 331.08,264 C352.3,263.79 375.22,263.4 396.55,262.97" fill="none" id="ELIMINAR_FUNCIONARIO-backto-DASHBOARD_ADMIN" style="stroke:#A80036;stroke-width:1;"/><polygon fill="#A80036" points="199.66,263.26,208.5897,267.4146,204.6593,263.3462,208.7277,259.4158,199.66,263.26" style="stroke:#A80036;stroke-width:1;"/></g><!--link ELIMINAR_FUNCIONARIO to DASHBOARD_ADMIN--><g class="link" data-entity-1="ELIMINAR_FUNCIONARIO" data-entity-2="DASHBOARD_ADMIN" data-source-line="20" data-uid="lnk18" id="link_ELIMINAR_FUNCIONARIO_DASHBOARD_ADMIN"><path d="M199.53,261 C260.46,261 332.38,261 390.49,261" fill="none" id="ELIMINAR_FUNCIONARIO-to-DASHBOARD_ADMIN" style="stroke:#A80036;stroke-width:1;"/><polygon fill="#A80036" points="396.49,261,387.49,257,391.49,261,387.49,265,396.49,261" style="stroke:#A80036;stroke-width:1;"/><path d="M221.66,224 L221.66,249 L370.66,249 L370.66,234 L360.66,224 L221.66,224" fill="#FFFFFF" filter="url(#f5r7jlnemnkoe)" style="stroke:#A80036;stroke-width:1;"/><path d="M360.66,224 L360.66,234 L370.66,234 L360.66,224" fill="#FFFFFF" style="stroke:#A80036;stroke-width:1;"/><text fill="#000000" font-family="sans-serif" font-size="13" lengthAdjust="spacing" textLength="128.832" x="227.66" y="241.0669">eliminarFuncionario</text></g><!--link DASHBOARD_ADMIN to CONSULTAR_FUNCIONARIO--><g class="link" data-entity-1="DASHBOARD_ADMIN" data-entity-2="CONSULTAR_FUNCIONARIO" data-source-line="23" data-uid="lnk20" id="link_DASHBOARD_ADMIN_CONSULTAR_FUNCIONARIO"><path d="M561.81,262.94 C583.98,263.38 607.94,263.78 630.08,264 C674.93,264.45 718.4307,264.093 760.9907,263.433" fill="none" id="DASHBOARD_ADMIN-to-CONSULTAR_FUNCIONARIO" style="stroke:#A80036;stroke-width:1;"/><polygon fill="#A80036" points="766.99,263.34,757.9291,259.48,761.9906,263.4175,758.0531,267.4791,766.99,263.34" style="stroke:#A80036;stroke-width:1;"/></g><!--reverse link DASHBOARD_ADMIN to CONSULTAR_FUNCIONARIO--><g class="link" data-entity-1="DASHBOARD_ADMIN" data-entity-2="CONSULTAR_FUNCIONARIO" data-source-line="24" data-uid="lnk22" id="link_DASHBOARD_ADMIN_CONSULTAR_FUNCIONARIO"><path d="M567.79,261 C627.47,261 702.6,261 767.08,261" fill="none" id="DASHBOARD_ADMIN-backto-CONSULTAR_FUNCIONARIO" style="stroke:#A80036;stroke-width:1;"/><polygon fill="#A80036" points="561.79,261,570.79,265,566.79,261,570.79,257,561.79,261" style="stroke:#A80036;stroke-width:1;"/><path d="M583.9,224 L583.9,249 L740.9,249 L740.9,234 L730.9,224 L583.9,224" fill="#FFFFFF" filter="url(#f5r7jlnemnkoe)" style="stroke:#A80036;stroke-width:1;"/><path d="M730.9,224 L730.9,234 L740.9,234 L730.9,224" fill="#FFFFFF" style="stroke:#A80036;stroke-width:1;"/><text fill="#000000" font-family="sans-serif" font-size="13" lengthAdjust="spacing" textLength="136.1572" x="589.9" y="241.0669">consultarFuncionario</text></g><!--link DASHBOARD_ADMIN to *end*--><g class="link" data-entity-1="DASHBOARD_ADMIN" data-entity-2=".end." data-source-line="27" data-uid="lnk24" id="link_DASHBOARD_ADMIN_.end."><path d="M561.59,279.98 C584.24,288.05 607.43,299.58 625.19,316 C650.27,339.18 660.6014,374.0467 664.8614,392.9567" fill="none" id="DASHBOARD_ADMIN-to-*end*" style="stroke:#A80036;stroke-width:1;"/><polygon fill="#A80036" points="666.18,398.81,668.1043,389.151,665.0812,393.9322,660.2999,390.9091,666.18,398.81" style="stroke:#A80036;stroke-width:1;"/><path d="M656.19,321 L656.19,346 L718.19,346 L718.19,331 L708.19,321 L656.19,321" fill="#FFFFFF" filter="url(#f5r7jlnemnkoe)" style="stroke:#A80036;stroke-width:1;"/><path d="M708.19,321 L708.19,331 L718.19,331 L708.19,321" fill="#FFFFFF" style="stroke:#A80036;stroke-width:1;"/><text fill="#000000" font-family="sans-serif" font-size="13" lengthAdjust="spacing" textLength="41.1074" x="662.19" y="338.0669">logout</text></g><!--SRC=[ZPBFQiCm3CRlUWgT1tw17GfkadQ6B86aFOrHJ69I4zSQ_iCEO-y-Pzif3RYtZmz9F-b3VjOM7Na5FgaFwUGDBGM5Nu2ubyCyEOfsBCYGmy-h3Wg-0TwUtf6n7Of658BN0Fy2sPZSalSl-vPtvOMNhwA1ttbaqMWxFwEXILk0LH4obpgxwYZwKyUxo-7S5A9jU2TQs7IHcIpAgKdxuAGxH3jeij9fsY0lErUbEAsmznQoc6MgKOSSSDcygaNIQ-I6-PTC1chqJTiSTfbJj4r_hjUdRhgF93oGzT64Hn9EFtF_2HJ33m00]--></g></svg>
