<svg xmlns="http://www.w3.org/2000/svg" xmlns:xlink="http://www.w3.org/1999/xlink" contentStyleType="text/css" data-diagram-type="STATE" height="681px" preserveAspectRatio="none" style="width:1148px;height:681px;background:#FFFFFF;" version="1.1" viewBox="0 0 1148 681" width="1148px" zoomAndPan="magnify"><defs><filter height="300%" id="f180aa8c5nei43" width="300%" x="-1" y="-1"><feGaussianBlur result="blurOut" stdDeviation="2"/><feColorMatrix in="blurOut" result="blurOut2" type="matrix" values="0 0 0 0 0 0 0 0 0 0 0 0 0 0 0 0 0 0 .4 0"/><feOffset dx="4" dy="4" in="blurOut2" result="blurOut3"/><feBlend in="SourceGraphic" in2="blurOut3" mode="normal"/></filter></defs><g><ellipse cx="336.13" cy="16" fill="#000000" filter="url(#f180aa8c5nei43)" rx="10" ry="10" style="stroke:#000000;stroke-width:1;"/><g id="INICIAL"><rect fill="#FEFECE" filter="url(#f180aa8c5nei43)" height="50" rx="12.5" ry="12.5" style="stroke:#A80036;stroke-width:1;" width="70.0117" x="301.12" y="87"/><line style="stroke:#A80036;stroke-width:1;" x1="301.12" x2="371.1317" y1="113.2969" y2="113.2969"/><text fill="#000000" font-family="sans-serif" font-size="14" lengthAdjust="spacing" textLength="50.0117" x="311.12" y="104.9951">INICIAL</text></g><g id="USUARIO_NO_REGISTRADO"><rect fill="#FEFECE" filter="url(#f180aa8c5nei43)" height="50" rx="12.5" ry="12.5" style="stroke:#A80036;stroke-width:1;" width="211.4199" x="230.42" y="236"/><line style="stroke:#A80036;stroke-width:1;" x1="230.42" x2="441.8399" y1="262.2969" y2="262.2969"/><text fill="#000000" font-family="sans-serif" font-size="14" lengthAdjust="spacing" textLength="191.4199" x="240.42" y="253.9951">USUARIO_NO_REGISTRADO</text></g><g id="REGISTRO_USUARIO"><rect fill="#FEFECE" filter="url(#f180aa8c5nei43)" height="50" rx="12.5" ry="12.5" style="stroke:#A80036;stroke-width:1;" width="162.5703" x="223.84" y="385"/><line style="stroke:#A80036;stroke-width:1;" x1="223.84" x2="386.4103" y1="411.2969" y2="411.2969"/><text fill="#000000" font-family="sans-serif" font-size="14" lengthAdjust="spacing" textLength="142.5703" x="233.84" y="402.9951">REGISTRO_USUARIO</text></g><g id="USUARIO_REGISTRADO"><rect fill="#FEFECE" filter="url(#f180aa8c5nei43)" height="50" rx="12.5" ry="12.5" style="stroke:#A80036;stroke-width:1;" width="182.9277" x="541.66" y="385"/><line style="stroke:#A80036;stroke-width:1;" x1="541.66" x2="724.5877" y1="411.2969" y2="411.2969"/><text fill="#000000" font-family="sans-serif" font-size="14" lengthAdjust="spacing" textLength="162.9277" x="551.66" y="402.9951">USUARIO_REGISTRADO</text></g><g id="MODULO_CITAS"><rect fill="#FEFECE" filter="url(#f180aa8c5nei43)" height="50" rx="12.5" ry="12.5" style="stroke:#A80036;stroke-width:1;" width="130.8652" x="566.69" y="534"/><line style="stroke:#A80036;stroke-width:1;" x1="566.69" x2="697.5552" y1="560.2969" y2="560.2969"/><text fill="#000000" font-family="sans-serif" font-size="14" lengthAdjust="spacing" textLength="110.8652" x="576.69" y="551.9951">MODULO_CITAS</text></g><g id="MODULO_NOTIFICACIONES"><rect fill="#FEFECE" filter="url(#f180aa8c5nei43)" height="50" rx="12.5" ry="12.5" style="stroke:#A80036;stroke-width:1;" width="208.7813" x="925.73" y="385"/><line style="stroke:#A80036;stroke-width:1;" x1="925.73" x2="1134.5113" y1="411.2969" y2="411.2969"/><text fill="#000000" font-family="sans-serif" font-size="14" lengthAdjust="spacing" textLength="188.7813" x="935.73" y="402.9951">MODULO_NOTIFICACIONES</text></g><g id="NAVEGACION_SISTEMA"><rect fill="#FEFECE" filter="url(#f180aa8c5nei43)" height="50" rx="12.5" ry="12.5" style="stroke:#A80036;stroke-width:1;" width="182.251" x="7" y="385"/><line style="stroke:#A80036;stroke-width:1;" x1="7" x2="189.251" y1="411.2969" y2="411.2969"/><text fill="#000000" font-family="sans-serif" font-size="14" lengthAdjust="spacing" textLength="162.251" x="17" y="402.9951">NAVEGACION_SISTEMA</text></g><ellipse cx="733.13" cy="656" fill="none" filter="url(#f180aa8c5nei43)" rx="11" ry="11" style="stroke:#000000;stroke-width:1;"/><ellipse cx="733.13" cy="656" fill="#000000" rx="6" ry="6" style="stroke:#000000;stroke-width:1;"/><!--link *start* to INICIAL--><g class="link" data-entity-1=".start." data-entity-2="INICIAL" data-source-line="6" data-uid="lnk4" id="link_.start._INICIAL"><path d="M336.13,26.36 C336.13,40.29 336.13,60.95 336.13,80.65" fill="none" id="*start*-to-INICIAL" style="stroke:#A80036;stroke-width:1;"/><polygon fill="#A80036" points="336.13,86.65,340.13,77.65,336.13,81.65,332.13,77.65,336.13,86.65" style="stroke:#A80036;stroke-width:1;"/></g><!--link INICIAL to USUARIO_NO_REGISTRADO--><g class="link" data-entity-1="INICIAL" data-entity-2="USUARIO_NO_REGISTRADO" data-source-line="8" data-uid="lnk6" id="link_INICIAL_USUARIO_NO_REGISTRADO"><path d="M336.13,137.27 C336.13,164.51 336.13,202.44 336.13,229.69" fill="none" id="INICIAL-to-USUARIO_NO_REGISTRADO" style="stroke:#A80036;stroke-width:1;"/><polygon fill="#A80036" points="336.13,235.69,340.13,226.69,336.13,230.69,332.13,226.69,336.13,235.69" style="stroke:#A80036;stroke-width:1;"/><path d="M341.13,172 L341.13,197 L467.13,197 L467.13,182 L457.13,172 L341.13,172" fill="#FFFFFF" filter="url(#f180aa8c5nei43)" style="stroke:#A80036;stroke-width:1;"/><path d="M457.13,172 L457.13,182 L467.13,182 L457.13,172" fill="#FFFFFF" style="stroke:#A80036;stroke-width:1;"/><text fill="#000000" font-family="sans-serif" font-size="13" lengthAdjust="spacing" textLength="105.8916" x="347.13" y="189.0669">ingresarSistema</text></g><!--link USUARIO_NO_REGISTRADO to REGISTRO_USUARIO--><g class="link" data-entity-1="USUARIO_NO_REGISTRADO" data-entity-2="REGISTRO_USUARIO" data-source-line="11" data-uid="lnk8" id="link_USUARIO_NO_REGISTRADO_REGISTRO_USUARIO"><path d="M285.06,286.23 C273.87,294.08 263.48,303.95 257.13,316 C249.04,331.33 250.97,338.8 257.13,355 C261.32,366.02 264.8123,371.8378 272.7323,380.3478" fill="none" id="USUARIO_NO_REGISTRADO-to-REGISTRO_USUARIO" style="stroke:#A80036;stroke-width:1;"/><polygon fill="#A80036" points="276.82,384.74,273.6166,375.4267,273.4136,381.0799,267.7604,380.8769,276.82,384.74" style="stroke:#A80036;stroke-width:1;"/></g><!--reverse link USUARIO_NO_REGISTRADO to REGISTRO_USUARIO--><g class="link" data-entity-1="USUARIO_NO_REGISTRADO" data-entity-2="REGISTRO_USUARIO" data-source-line="12" data-uid="lnk10" id="link_USUARIO_NO_REGISTRADO_REGISTRO_USUARIO"><path d="M379.6582,290.2263 C389.3182,298.3663 393.83,304.48 399.13,316 C406.37,331.75 407.81,340 399.13,355 C392.05,367.22 381.06,376.91 369.04,384.51" fill="none" id="USUARIO_NO_REGISTRADO-backto-REGISTRO_USUARIO" style="stroke:#A80036;stroke-width:1;"/><polygon fill="#A80036" points="375.07,286.36,379.3748,295.2182,378.8935,289.5819,384.5299,289.1006,375.07,286.36" style="stroke:#A80036;stroke-width:1;"/><path d="M410.13,321 L410.13,346 L486.13,346 L486.13,331 L476.13,321 L410.13,321" fill="#FFFFFF" filter="url(#f180aa8c5nei43)" style="stroke:#A80036;stroke-width:1;"/><path d="M476.13,321 L476.13,331 L486.13,331 L476.13,321" fill="#FFFFFF" style="stroke:#A80036;stroke-width:1;"/><text fill="#000000" font-family="sans-serif" font-size="13" lengthAdjust="spacing" textLength="55.7324" x="416.13" y="338.0669">registrar</text></g><!--link REGISTRO_USUARIO to USUARIO_REGISTRADO--><g class="link" data-entity-1="REGISTRO_USUARIO" data-entity-2="USUARIO_REGISTRADO" data-source-line="15" data-uid="lnk12" id="link_REGISTRO_USUARIO_USUARIO_REGISTRADO"><path d="M386.63,410 C433.58,410 486.74,410 535.34,410" fill="none" id="REGISTRO_USUARIO-to-USUARIO_REGISTRADO" style="stroke:#A80036;stroke-width:1;"/><polygon fill="#A80036" points="541.34,410,532.34,406,536.34,410,532.34,414,541.34,410" style="stroke:#A80036;stroke-width:1;"/><path d="M408.54,373 L408.54,398 L515.54,398 L515.54,383 L505.54,373 L408.54,373" fill="#FFFFFF" filter="url(#f180aa8c5nei43)" style="stroke:#A80036;stroke-width:1;"/><path d="M505.54,373 L505.54,383 L515.54,383 L505.54,373" fill="#FFFFFF" style="stroke:#A80036;stroke-width:1;"/><text fill="#000000" font-family="sans-serif" font-size="13" lengthAdjust="spacing" textLength="86.417" x="414.54" y="390.0669">&#233;xitoRegistro</text></g><!--link USUARIO_REGISTRADO to MODULO_CITAS--><g class="link" data-entity-1="USUARIO_REGISTRADO" data-entity-2="MODULO_CITAS" data-source-line="18" data-uid="lnk14" id="link_USUARIO_REGISTRADO_MODULO_CITAS"><path d="M612.57,435.24 C606.35,444.04 600.33,454.43 597.13,465 C592.1,481.59 592.21,487.38 597.13,504 C600.23,514.5 602.6973,519.9213 608.7373,528.7313" fill="none" id="USUARIO_REGISTRADO-to-MODULO_CITAS" style="stroke:#A80036;stroke-width:1;"/><polygon fill="#A80036" points="612.13,533.68,610.34,523.9952,609.3027,529.5561,603.7418,528.5188,612.13,533.68" style="stroke:#A80036;stroke-width:1;"/></g><!--reverse link USUARIO_REGISTRADO to MODULO_CITAS--><g class="link" data-entity-1="USUARIO_REGISTRADO" data-entity-2="MODULO_CITAS" data-source-line="19" data-uid="lnk16" id="link_USUARIO_REGISTRADO_MODULO_CITAS"><path d="M631.1239,441.4394 C630.5739,450.6894 630.39,455.33 630.13,465 C629.48,488.25 630.19,514.77 630.94,533.52" fill="none" id="USUARIO_REGISTRADO-backto-MODULO_CITAS" style="stroke:#A80036;stroke-width:1;"/><polygon fill="#A80036" points="631.48,435.45,626.9529,444.1967,631.1832,440.4412,634.9388,444.6716,631.48,435.45" style="stroke:#A80036;stroke-width:1;"/><path d="M635.13,470 L635.13,495 L732.13,495 L732.13,480 L722.13,470 L635.13,470" fill="#FFFFFF" filter="url(#f180aa8c5nei43)" style="stroke:#A80036;stroke-width:1;"/><path d="M722.13,470 L722.13,480 L732.13,480 L722.13,470" fill="#FFFFFF" style="stroke:#A80036;stroke-width:1;"/><text fill="#000000" font-family="sans-serif" font-size="13" lengthAdjust="spacing" textLength="76.8701" x="641.13" y="487.0669">solicitarCita</text></g><!--link USUARIO_REGISTRADO to MODULO_NOTIFICACIONES--><g class="link" data-entity-1="USUARIO_REGISTRADO" data-entity-2="MODULO_NOTIFICACIONES" data-source-line="22" data-uid="lnk18" id="link_USUARIO_REGISTRADO_MODULO_NOTIFICACIONES"><path d="M724.9,412.03 C746.77,412.43 770.03,412.8 791.64,413 C835.42,413.41 877.7307,413.0637 919.3507,412.4137" fill="none" id="USUARIO_REGISTRADO-to-MODULO_NOTIFICACIONES" style="stroke:#A80036;stroke-width:1;"/><polygon fill="#A80036" points="925.35,412.32,916.2886,408.461,920.3506,412.3981,916.4136,416.4601,925.35,412.32" style="stroke:#A80036;stroke-width:1;"/></g><!--reverse link USUARIO_REGISTRADO to MODULO_NOTIFICACIONES--><g class="link" data-entity-1="USUARIO_REGISTRADO" data-entity-2="MODULO_NOTIFICACIONES" data-source-line="23" data-uid="lnk20" id="link_USUARIO_REGISTRADO_MODULO_NOTIFICACIONES"><path d="M730.7,410 C790.59,410 862.97,410 925.34,410" fill="none" id="USUARIO_REGISTRADO-backto-MODULO_NOTIFICACIONES" style="stroke:#A80036;stroke-width:1;"/><polygon fill="#A80036" points="724.7,410,733.7,414,729.7,410,733.7,406,724.7,410" style="stroke:#A80036;stroke-width:1;"/><path d="M746.66,373 L746.66,398 L899.66,398 L899.66,383 L889.66,373 L746.66,373" fill="#FFFFFF" filter="url(#f180aa8c5nei43)" style="stroke:#A80036;stroke-width:1;"/><path d="M889.66,373 L889.66,383 L899.66,383 L889.66,373" fill="#FFFFFF" style="stroke:#A80036;stroke-width:1;"/><text fill="#000000" font-family="sans-serif" font-size="13" lengthAdjust="spacing" textLength="132.7231" x="752.66" y="390.0669">recibirNotificaciones</text></g><!--reverse link NAVEGACION_SISTEMA to USUARIO_REGISTRADO--><g class="link" data-entity-1="NAVEGACION_SISTEMA" data-entity-2="USUARIO_REGISTRADO" data-source-line="26" data-uid="lnk23" id="link_NAVEGACION_SISTEMA_USUARIO_REGISTRADO"><path d="M134.8275,380.9643 C158.9575,363.3643 188.93,345.02 223.63,335.5 C348.36,301.27 498.87,351.33 578.12,384.54" fill="none" id="NAVEGACION_SISTEMA-backto-USUARIO_REGISTRADO" style="stroke:#A80036;stroke-width:1;"/><polygon fill="#A80036" points="129.98,384.5,139.6085,382.4281,134.0196,381.5536,134.8942,375.9647,129.98,384.5" style="stroke:#A80036;stroke-width:1;"/></g><!--link NAVEGACION_SISTEMA to USUARIO_REGISTRADO--><g class="link" data-entity-1="NAVEGACION_SISTEMA" data-entity-2="USUARIO_REGISTRADO" data-source-line="27" data-uid="lnk24" id="link_NAVEGACION_SISTEMA_USUARIO_REGISTRADO"><path d="M135.25,384.65 C166.48,364.95 213.1,339.23 258.13,328.42 C373.93,300.6 505.3902,348.8902 577.4802,382.0902" fill="none" id="NAVEGACION_SISTEMA-to-USUARIO_REGISTRADO" style="stroke:#A80036;stroke-width:1;"/><polygon fill="#A80036" points="582.93,384.6,576.4285,377.202,578.3885,382.5085,573.082,384.4685,582.93,384.6" style="stroke:#A80036;stroke-width:1;"/><path d="M263.13,321 L263.13,346 L389.13,346 L389.13,331 L379.13,321 L263.13,321" fill="#FFFFFF" filter="url(#f180aa8c5nei43)" style="stroke:#A80036;stroke-width:1;"/><path d="M379.13,321 L379.13,331 L389.13,331 L379.13,321" fill="#FFFFFF" style="stroke:#A80036;stroke-width:1;"/><text fill="#000000" font-family="sans-serif" font-size="13" lengthAdjust="spacing" textLength="105.8218" x="269.13" y="338.0669">navegarSistema</text></g><!--link MODULO_CITAS to *end*--><g class="link" data-entity-1="MODULO_CITAS" data-entity-2=".end." data-source-line="30" data-uid="lnk26" id="link_MODULO_CITAS_.end."><path d="M658.14,584.46 C680.58,605.58 707.169,630.5897 721.249,643.8297" fill="none" id="MODULO_CITAS-to-*end*" style="stroke:#A80036;stroke-width:1;"/><polygon fill="#A80036" points="725.62,647.94,721.8036,638.8606,721.9775,644.5148,716.3233,644.6886,725.62,647.94" style="stroke:#A80036;stroke-width:1;"/></g><!--link MODULO_NOTIFICACIONES to *end*--><g class="link" data-entity-1="MODULO_NOTIFICACIONES" data-entity-2=".end." data-source-line="31" data-uid="lnk27" id="link_MODULO_NOTIFICACIONES_.end."><path d="M1007.34,435.22 C973.81,470.19 908.41,535.88 846.13,584 C810.01,611.9 767.8187,636.021 747.8687,646.981" fill="none" id="MODULO_NOTIFICACIONES-to-*end*" style="stroke:#A80036;stroke-width:1;"/><polygon fill="#A80036" points="742.61,649.87,752.424,649.0423,746.9922,647.4625,748.572,642.0307,742.61,649.87" style="stroke:#A80036;stroke-width:1;"/></g><!--link NAVEGACION_SISTEMA to *end*--><g class="link" data-entity-1="NAVEGACION_SISTEMA" data-entity-2=".end." data-source-line="32" data-uid="lnk28" id="link_NAVEGACION_SISTEMA_.end."><path d="M161.63,435.4 C307.37,491.4 652.7192,624.108 717.2392,648.898" fill="none" id="NAVEGACION_SISTEMA-to-*end*" style="stroke:#A80036;stroke-width:1;"/><polygon fill="#A80036" points="722.84,651.05,715.8734,644.0882,718.1727,649.2567,713.0041,651.5559,722.84,651.05" style="stroke:#A80036;stroke-width:1;"/></g><!--link USUARIO_REGISTRADO to *end*--><g class="link" data-entity-1="USUARIO_REGISTRADO" data-entity-2=".end." data-source-line="34" data-uid="lnk29" id="link_USUARIO_REGISTRADO_.end."><path d="M712.99,435.48 C725.76,442.93 737.32,452.57 745.13,465 C782.39,524.34 752.0154,610.1606 739.6754,639.8106" fill="none" id="USUARIO_REGISTRADO-to-*end*" style="stroke:#A80036;stroke-width:1;"/><polygon fill="#A80036" points="737.37,645.35,744.5211,638.5779,739.2912,640.7338,737.1352,635.5039,737.37,645.35" style="stroke:#A80036;stroke-width:1;"/><path d="M767.13,544.5 L767.13,569.5 L829.13,569.5 L829.13,554.5 L819.13,544.5 L767.13,544.5" fill="#FFFFFF" filter="url(#f180aa8c5nei43)" style="stroke:#A80036;stroke-width:1;"/><path d="M819.13,544.5 L819.13,554.5 L829.13,554.5 L819.13,544.5" fill="#FFFFFF" style="stroke:#A80036;stroke-width:1;"/><text fill="#000000" font-family="sans-serif" font-size="13" lengthAdjust="spacing" textLength="41.1074" x="773.13" y="561.5669">logout</text></g><!--SRC=[ZPBVIiCm5CRlprESQw4lu8KGkpe2MmFjver8YLsiXtM9d6GgY0_aS_XYPbjnwsnXD-7yIRxVb-JuDLbavmtu6BrgrXkqBXZy1CHRNQyRTbkxIbth6DzVA1Zu0dYuUiGakK6PorIA6K0NOBAArMMv58LKLQwg8flASb68YOAzghFOabrV8zc6ZTTSaWzcem463ntqkbnLtHuuBs2olH3Bfeb0rWm38dmYCghmy_r1mHK77NVqVMvwhYRBcQfIkH0bd2PziwCSxrggAMXEupACuICcLmjv9rEHIfLdVxn-5PFs4Z2Rcfw8SnVecMfTaxF63nlOwUNYFflk2LKP6zbSmF_IXMzhzPjfJcQY_snH8SxTsDswxX2xQur-rQxPDzAwnct3Bm00]--></g></svg>